<mxfile host="app.diagrams.net" agent="Mozilla/5.0 (Windows NT 10.0; Win64; x64) AppleWebKit/537.36 (KHTML, like Gecko) Chrome/134.0.0.0 Safari/537.36" version="26.2.5">
  <diagram name="1 oldal" id="JyWYQCtQ1W-Yv0_ZbHuP">
    <mxGraphModel grid="1" page="1" gridSize="10" guides="1" tooltips="1" connect="1" arrows="1" fold="1" pageScale="1" pageWidth="827" pageHeight="1169" math="0" shadow="0">
      <root>
        <mxCell id="0" />
        <mxCell id="1" parent="0" />
        <mxCell id="qwdnr5w1G_35Hq9LzELt-1" value="Device" style="swimlane;fontStyle=0;childLayout=stackLayout;horizontal=1;startSize=30;horizontalStack=0;resizeParent=1;resizeParentMax=0;resizeLast=0;collapsible=1;marginBottom=0;whiteSpace=wrap;html=1;" vertex="1" parent="1">
          <mxGeometry x="688.75" y="-1140" width="120" height="390" as="geometry" />
        </mxCell>
        <mxCell id="qwdnr5w1G_35Hq9LzELt-2" value="Id" style="text;strokeColor=none;fillColor=none;align=left;verticalAlign=middle;spacingLeft=4;spacingRight=4;overflow=hidden;points=[[0,0.5],[1,0.5]];portConstraint=eastwest;rotatable=0;whiteSpace=wrap;html=1;fontStyle=1" vertex="1" parent="qwdnr5w1G_35Hq9LzELt-1">
          <mxGeometry y="30" width="120" height="30" as="geometry" />
        </mxCell>
        <mxCell id="ZuJdxM5GcSdyns7ZK-va-2" value="DeviceType" style="text;strokeColor=none;fillColor=none;align=left;verticalAlign=middle;spacingLeft=4;spacingRight=4;overflow=hidden;points=[[0,0.5],[1,0.5]];portConstraint=eastwest;rotatable=0;whiteSpace=wrap;html=1;" vertex="1" parent="qwdnr5w1G_35Hq9LzELt-1">
          <mxGeometry y="60" width="120" height="30" as="geometry" />
        </mxCell>
        <mxCell id="qwdnr5w1G_35Hq9LzELt-3" value="Manufacturer" style="text;strokeColor=none;fillColor=none;align=left;verticalAlign=middle;spacingLeft=4;spacingRight=4;overflow=hidden;points=[[0,0.5],[1,0.5]];portConstraint=eastwest;rotatable=0;whiteSpace=wrap;html=1;" vertex="1" parent="qwdnr5w1G_35Hq9LzELt-1">
          <mxGeometry y="90" width="120" height="30" as="geometry" />
        </mxCell>
        <mxCell id="qwdnr5w1G_35Hq9LzELt-4" value="Model" style="text;strokeColor=none;fillColor=none;align=left;verticalAlign=middle;spacingLeft=4;spacingRight=4;overflow=hidden;points=[[0,0.5],[1,0.5]];portConstraint=eastwest;rotatable=0;whiteSpace=wrap;html=1;" vertex="1" parent="qwdnr5w1G_35Hq9LzELt-1">
          <mxGeometry y="120" width="120" height="30" as="geometry" />
        </mxCell>
        <mxCell id="qwdnr5w1G_35Hq9LzELt-7" value="ApplicationUserId" style="text;strokeColor=none;fillColor=none;align=left;verticalAlign=middle;spacingLeft=4;spacingRight=4;overflow=hidden;points=[[0,0.5],[1,0.5]];portConstraint=eastwest;rotatable=0;whiteSpace=wrap;html=1;" vertex="1" parent="qwdnr5w1G_35Hq9LzELt-1">
          <mxGeometry y="150" width="120" height="30" as="geometry" />
        </mxCell>
        <mxCell id="qwdnr5w1G_35Hq9LzELt-6" value="MaxChargingSpeed" style="text;strokeColor=none;fillColor=none;align=left;verticalAlign=middle;spacingLeft=4;spacingRight=4;overflow=hidden;points=[[0,0.5],[1,0.5]];portConstraint=eastwest;rotatable=0;whiteSpace=wrap;html=1;" vertex="1" parent="qwdnr5w1G_35Hq9LzELt-1">
          <mxGeometry y="180" width="120" height="30" as="geometry" />
        </mxCell>
        <mxCell id="BOoUM45k7-DTSGgLFSgU-16" value="BatteryCapacity" style="text;strokeColor=none;fillColor=none;align=left;verticalAlign=middle;spacingLeft=4;spacingRight=4;overflow=hidden;points=[[0,0.5],[1,0.5]];portConstraint=eastwest;rotatable=0;whiteSpace=wrap;html=1;" vertex="1" parent="qwdnr5w1G_35Hq9LzELt-1">
          <mxGeometry y="210" width="120" height="30" as="geometry" />
        </mxCell>
        <mxCell id="BOoUM45k7-DTSGgLFSgU-17" value="BatteryVoltage" style="text;strokeColor=none;fillColor=none;align=left;verticalAlign=middle;spacingLeft=4;spacingRight=4;overflow=hidden;points=[[0,0.5],[1,0.5]];portConstraint=eastwest;rotatable=0;whiteSpace=wrap;html=1;" vertex="1" parent="qwdnr5w1G_35Hq9LzELt-1">
          <mxGeometry y="240" width="120" height="30" as="geometry" />
        </mxCell>
        <mxCell id="qwdnr5w1G_35Hq9LzELt-5" value="Name" style="text;strokeColor=none;fillColor=none;align=left;verticalAlign=middle;spacingLeft=4;spacingRight=4;overflow=hidden;points=[[0,0.5],[1,0.5]];portConstraint=eastwest;rotatable=0;whiteSpace=wrap;html=1;" vertex="1" parent="qwdnr5w1G_35Hq9LzELt-1">
          <mxGeometry y="270" width="120" height="30" as="geometry" />
        </mxCell>
        <mxCell id="sgFfAgrPC_tCXcebaLDW-9" value="DetachableBattery" style="text;strokeColor=none;fillColor=none;align=left;verticalAlign=middle;spacingLeft=4;spacingRight=4;overflow=hidden;points=[[0,0.5],[1,0.5]];portConstraint=eastwest;rotatable=0;whiteSpace=wrap;html=1;" vertex="1" parent="qwdnr5w1G_35Hq9LzELt-1">
          <mxGeometry y="300" width="120" height="30" as="geometry" />
        </mxCell>
        <mxCell id="sgFfAgrPC_tCXcebaLDW-10" value="IsFoldable" style="text;strokeColor=none;fillColor=none;align=left;verticalAlign=middle;spacingLeft=4;spacingRight=4;overflow=hidden;points=[[0,0.5],[1,0.5]];portConstraint=eastwest;rotatable=0;whiteSpace=wrap;html=1;" vertex="1" parent="qwdnr5w1G_35Hq9LzELt-1">
          <mxGeometry y="330" width="120" height="30" as="geometry" />
        </mxCell>
        <mxCell id="sgFfAgrPC_tCXcebaLDW-11" value="CanBeLocked" style="text;strokeColor=none;fillColor=none;align=left;verticalAlign=middle;spacingLeft=4;spacingRight=4;overflow=hidden;points=[[0,0.5],[1,0.5]];portConstraint=eastwest;rotatable=0;whiteSpace=wrap;html=1;" vertex="1" parent="qwdnr5w1G_35Hq9LzELt-1">
          <mxGeometry y="360" width="120" height="30" as="geometry" />
        </mxCell>
        <mxCell id="qwdnr5w1G_35Hq9LzELt-8" value="ChargingStation" style="swimlane;fontStyle=0;childLayout=stackLayout;horizontal=1;startSize=30;horizontalStack=0;resizeParent=1;resizeParentMax=0;resizeLast=0;collapsible=1;marginBottom=0;whiteSpace=wrap;html=1;" vertex="1" parent="1">
          <mxGeometry x="59" y="-1100" width="120" height="180" as="geometry" />
        </mxCell>
        <mxCell id="qwdnr5w1G_35Hq9LzELt-9" value="Id" style="text;strokeColor=none;fillColor=none;align=left;verticalAlign=middle;spacingLeft=4;spacingRight=4;overflow=hidden;points=[[0,0.5],[1,0.5]];portConstraint=eastwest;rotatable=0;whiteSpace=wrap;html=1;fontStyle=1" vertex="1" parent="qwdnr5w1G_35Hq9LzELt-8">
          <mxGeometry y="30" width="120" height="30" as="geometry" />
        </mxCell>
        <mxCell id="qwdnr5w1G_35Hq9LzELt-10" value="Latitude" style="text;strokeColor=none;fillColor=none;align=left;verticalAlign=middle;spacingLeft=4;spacingRight=4;overflow=hidden;points=[[0,0.5],[1,0.5]];portConstraint=eastwest;rotatable=0;whiteSpace=wrap;html=1;" vertex="1" parent="qwdnr5w1G_35Hq9LzELt-8">
          <mxGeometry y="60" width="120" height="30" as="geometry" />
        </mxCell>
        <mxCell id="qwdnr5w1G_35Hq9LzELt-11" value="Longitude" style="text;strokeColor=none;fillColor=none;align=left;verticalAlign=middle;spacingLeft=4;spacingRight=4;overflow=hidden;points=[[0,0.5],[1,0.5]];portConstraint=eastwest;rotatable=0;whiteSpace=wrap;html=1;" vertex="1" parent="qwdnr5w1G_35Hq9LzELt-8">
          <mxGeometry y="90" width="120" height="30" as="geometry" />
        </mxCell>
        <mxCell id="qwdnr5w1G_35Hq9LzELt-12" value="Name" style="text;strokeColor=none;fillColor=none;align=left;verticalAlign=middle;spacingLeft=4;spacingRight=4;overflow=hidden;points=[[0,0.5],[1,0.5]];portConstraint=eastwest;rotatable=0;whiteSpace=wrap;html=1;" vertex="1" parent="qwdnr5w1G_35Hq9LzELt-8">
          <mxGeometry y="120" width="120" height="30" as="geometry" />
        </mxCell>
        <mxCell id="p1VEuEwC6bQ1uIXTAcuc-1" value="Address" style="text;strokeColor=none;fillColor=none;align=left;verticalAlign=middle;spacingLeft=4;spacingRight=4;overflow=hidden;points=[[0,0.5],[1,0.5]];portConstraint=eastwest;rotatable=0;whiteSpace=wrap;html=1;" vertex="1" parent="qwdnr5w1G_35Hq9LzELt-8">
          <mxGeometry y="150" width="120" height="30" as="geometry" />
        </mxCell>
        <mxCell id="qwdnr5w1G_35Hq9LzELt-15" value="AspNetUsers" style="swimlane;fontStyle=0;childLayout=stackLayout;horizontal=1;startSize=30;horizontalStack=0;resizeParent=1;resizeParentMax=0;resizeLast=0;collapsible=1;marginBottom=0;whiteSpace=wrap;html=1;" vertex="1" parent="1">
          <mxGeometry x="469" y="-830" width="150" height="570" as="geometry" />
        </mxCell>
        <mxCell id="SyCE59NEi6iRz4jp0s0u-14" value="AccessFailedCount" style="text;strokeColor=none;fillColor=none;align=left;verticalAlign=middle;spacingLeft=4;spacingRight=4;overflow=hidden;points=[[0,0.5],[1,0.5]];portConstraint=eastwest;rotatable=0;whiteSpace=wrap;html=1;" vertex="1" parent="qwdnr5w1G_35Hq9LzELt-15">
          <mxGeometry y="30" width="150" height="30" as="geometry" />
        </mxCell>
        <mxCell id="SyCE59NEi6iRz4jp0s0u-8" value="ConcurrencyStamp" style="text;strokeColor=none;fillColor=none;align=left;verticalAlign=middle;spacingLeft=4;spacingRight=4;overflow=hidden;points=[[0,0.5],[1,0.5]];portConstraint=eastwest;rotatable=0;whiteSpace=wrap;html=1;" vertex="1" parent="qwdnr5w1G_35Hq9LzELt-15">
          <mxGeometry y="60" width="150" height="30" as="geometry" />
        </mxCell>
        <mxCell id="SyCE59NEi6iRz4jp0s0u-3" value="Email" style="text;strokeColor=none;fillColor=none;align=left;verticalAlign=middle;spacingLeft=4;spacingRight=4;overflow=hidden;points=[[0,0.5],[1,0.5]];portConstraint=eastwest;rotatable=0;whiteSpace=wrap;html=1;" vertex="1" parent="qwdnr5w1G_35Hq9LzELt-15">
          <mxGeometry y="90" width="150" height="30" as="geometry" />
        </mxCell>
        <mxCell id="SyCE59NEi6iRz4jp0s0u-5" value="EmailConfirmed" style="text;strokeColor=none;fillColor=none;align=left;verticalAlign=middle;spacingLeft=4;spacingRight=4;overflow=hidden;points=[[0,0.5],[1,0.5]];portConstraint=eastwest;rotatable=0;whiteSpace=wrap;html=1;" vertex="1" parent="qwdnr5w1G_35Hq9LzELt-15">
          <mxGeometry y="120" width="150" height="30" as="geometry" />
        </mxCell>
        <mxCell id="qwdnr5w1G_35Hq9LzELt-16" value="Id" style="text;strokeColor=none;fillColor=none;align=left;verticalAlign=middle;spacingLeft=4;spacingRight=4;overflow=hidden;points=[[0,0.5],[1,0.5]];portConstraint=eastwest;rotatable=0;whiteSpace=wrap;html=1;fontStyle=1" vertex="1" parent="qwdnr5w1G_35Hq9LzELt-15">
          <mxGeometry y="150" width="150" height="30" as="geometry" />
        </mxCell>
        <mxCell id="SyCE59NEi6iRz4jp0s0u-13" value="LockoutEnabled" style="text;strokeColor=none;fillColor=none;align=left;verticalAlign=middle;spacingLeft=4;spacingRight=4;overflow=hidden;points=[[0,0.5],[1,0.5]];portConstraint=eastwest;rotatable=0;whiteSpace=wrap;html=1;" vertex="1" parent="qwdnr5w1G_35Hq9LzELt-15">
          <mxGeometry y="180" width="150" height="30" as="geometry" />
        </mxCell>
        <mxCell id="SyCE59NEi6iRz4jp0s0u-12" value="LockoutEnd" style="text;strokeColor=none;fillColor=none;align=left;verticalAlign=middle;spacingLeft=4;spacingRight=4;overflow=hidden;points=[[0,0.5],[1,0.5]];portConstraint=eastwest;rotatable=0;whiteSpace=wrap;html=1;" vertex="1" parent="qwdnr5w1G_35Hq9LzELt-15">
          <mxGeometry y="210" width="150" height="30" as="geometry" />
        </mxCell>
        <mxCell id="SyCE59NEi6iRz4jp0s0u-41" value="Logins" style="text;strokeColor=none;fillColor=none;align=left;verticalAlign=middle;spacingLeft=4;spacingRight=4;overflow=hidden;points=[[0,0.5],[1,0.5]];portConstraint=eastwest;rotatable=0;whiteSpace=wrap;html=1;" vertex="1" parent="qwdnr5w1G_35Hq9LzELt-15">
          <mxGeometry y="240" width="150" height="30" as="geometry" />
        </mxCell>
        <mxCell id="SyCE59NEi6iRz4jp0s0u-4" value="NormalizedEmail" style="text;strokeColor=none;fillColor=none;align=left;verticalAlign=middle;spacingLeft=4;spacingRight=4;overflow=hidden;points=[[0,0.5],[1,0.5]];portConstraint=eastwest;rotatable=0;whiteSpace=wrap;html=1;" vertex="1" parent="qwdnr5w1G_35Hq9LzELt-15">
          <mxGeometry y="270" width="150" height="30" as="geometry" />
        </mxCell>
        <mxCell id="SyCE59NEi6iRz4jp0s0u-2" value="NormalizedUserName&lt;span style=&quot;color: rgba(0, 0, 0, 0); font-family: monospace; font-size: 0px; text-wrap-mode: nowrap;&quot;&gt;%3CmxGraphModel%3E%3Croot%3E%3CmxCell%20id%3D%220%22%2F%3E%3CmxCell%20id%3D%221%22%20parent%3D%220%22%2F%3E%3CmxCell%20id%3D%222%22%20value%3D%22FirstName%22%20style%3D%22text%3BstrokeColor%3Dnone%3BfillColor%3Dnone%3Balign%3Dleft%3BverticalAlign%3Dmiddle%3BspacingLeft%3D4%3BspacingRight%3D4%3Boverflow%3Dhidden%3Bpoints%3D%5B%5B0%2C0.5%5D%2C%5B1%2C0.5%5D%5D%3BportConstraint%3Deastwest%3Brotatable%3D0%3BwhiteSpace%3Dwrap%3Bhtml%3D1%3B%22%20vertex%3D%221%22%20parent%3D%221%22%3E%3CmxGeometry%20x%3D%22415%22%20y%3D%22-760%22%20width%3D%22150%22%20height%3D%2230%22%20as%3D%22geometry%22%2F%3E%3C%2FmxCell%3E%3C%2Froot%3E%3C%2FmxGraphModel%3E&lt;/span&gt;" style="text;strokeColor=none;fillColor=none;align=left;verticalAlign=middle;spacingLeft=4;spacingRight=4;overflow=hidden;points=[[0,0.5],[1,0.5]];portConstraint=eastwest;rotatable=0;whiteSpace=wrap;html=1;" vertex="1" parent="qwdnr5w1G_35Hq9LzELt-15">
          <mxGeometry y="300" width="150" height="30" as="geometry" />
        </mxCell>
        <mxCell id="SyCE59NEi6iRz4jp0s0u-6" value="PasswordHash" style="text;strokeColor=none;fillColor=none;align=left;verticalAlign=middle;spacingLeft=4;spacingRight=4;overflow=hidden;points=[[0,0.5],[1,0.5]];portConstraint=eastwest;rotatable=0;whiteSpace=wrap;html=1;" vertex="1" parent="qwdnr5w1G_35Hq9LzELt-15">
          <mxGeometry y="330" width="150" height="30" as="geometry" />
        </mxCell>
        <mxCell id="SyCE59NEi6iRz4jp0s0u-9" value="PhoneNumber" style="text;strokeColor=none;fillColor=none;align=left;verticalAlign=middle;spacingLeft=4;spacingRight=4;overflow=hidden;points=[[0,0.5],[1,0.5]];portConstraint=eastwest;rotatable=0;whiteSpace=wrap;html=1;" vertex="1" parent="qwdnr5w1G_35Hq9LzELt-15">
          <mxGeometry y="360" width="150" height="30" as="geometry" />
        </mxCell>
        <mxCell id="SyCE59NEi6iRz4jp0s0u-10" value="PhoneNumberConfirmed" style="text;strokeColor=none;fillColor=none;align=left;verticalAlign=middle;spacingLeft=4;spacingRight=4;overflow=hidden;points=[[0,0.5],[1,0.5]];portConstraint=eastwest;rotatable=0;whiteSpace=wrap;html=1;" vertex="1" parent="qwdnr5w1G_35Hq9LzELt-15">
          <mxGeometry y="390" width="150" height="30" as="geometry" />
        </mxCell>
        <mxCell id="SyCE59NEi6iRz4jp0s0u-7" value="SecurityStamp" style="text;strokeColor=none;fillColor=none;align=left;verticalAlign=middle;spacingLeft=4;spacingRight=4;overflow=hidden;points=[[0,0.5],[1,0.5]];portConstraint=eastwest;rotatable=0;whiteSpace=wrap;html=1;" vertex="1" parent="qwdnr5w1G_35Hq9LzELt-15">
          <mxGeometry y="420" width="150" height="30" as="geometry" />
        </mxCell>
        <mxCell id="SyCE59NEi6iRz4jp0s0u-11" value="TwoFactorEnabled" style="text;strokeColor=none;fillColor=none;align=left;verticalAlign=middle;spacingLeft=4;spacingRight=4;overflow=hidden;points=[[0,0.5],[1,0.5]];portConstraint=eastwest;rotatable=0;whiteSpace=wrap;html=1;" vertex="1" parent="qwdnr5w1G_35Hq9LzELt-15">
          <mxGeometry y="450" width="150" height="30" as="geometry" />
        </mxCell>
        <mxCell id="SyCE59NEi6iRz4jp0s0u-1" value="UserName" style="text;strokeColor=none;fillColor=none;align=left;verticalAlign=middle;spacingLeft=4;spacingRight=4;overflow=hidden;points=[[0,0.5],[1,0.5]];portConstraint=eastwest;rotatable=0;whiteSpace=wrap;html=1;" vertex="1" parent="qwdnr5w1G_35Hq9LzELt-15">
          <mxGeometry y="480" width="150" height="30" as="geometry" />
        </mxCell>
        <mxCell id="qwdnr5w1G_35Hq9LzELt-17" value="FirstName" style="text;strokeColor=none;fillColor=none;align=left;verticalAlign=middle;spacingLeft=4;spacingRight=4;overflow=hidden;points=[[0,0.5],[1,0.5]];portConstraint=eastwest;rotatable=0;whiteSpace=wrap;html=1;" vertex="1" parent="qwdnr5w1G_35Hq9LzELt-15">
          <mxGeometry y="510" width="150" height="30" as="geometry" />
        </mxCell>
        <mxCell id="sgFfAgrPC_tCXcebaLDW-32" value="LastName" style="text;strokeColor=none;fillColor=none;align=left;verticalAlign=middle;spacingLeft=4;spacingRight=4;overflow=hidden;points=[[0,0.5],[1,0.5]];portConstraint=eastwest;rotatable=0;whiteSpace=wrap;html=1;" vertex="1" parent="qwdnr5w1G_35Hq9LzELt-15">
          <mxGeometry y="540" width="150" height="30" as="geometry" />
        </mxCell>
        <mxCell id="qwdnr5w1G_35Hq9LzELt-25" value="ChargingStation" style="rounded=0;whiteSpace=wrap;html=1;fillColor=#f8cecc;strokeColor=#b85450;" vertex="1" parent="1">
          <mxGeometry x="134" y="70" width="120" height="40" as="geometry" />
        </mxCell>
        <mxCell id="qwdnr5w1G_35Hq9LzELt-28" value="Device" style="rounded=0;whiteSpace=wrap;html=1;fillColor=#f8cecc;strokeColor=#b85450;" vertex="1" parent="1">
          <mxGeometry x="559.12" y="325" width="120" height="40" as="geometry" />
        </mxCell>
        <mxCell id="qwdnr5w1G_35Hq9LzELt-30" value="Id" style="ellipse;whiteSpace=wrap;html=1;fontStyle=1" vertex="1" parent="1">
          <mxGeometry x="39" y="27.5" width="80" height="30" as="geometry" />
        </mxCell>
        <mxCell id="qwdnr5w1G_35Hq9LzELt-31" value="Latitude" style="ellipse;whiteSpace=wrap;html=1;" vertex="1" parent="1">
          <mxGeometry x="117" y="10" width="80" height="30" as="geometry" />
        </mxCell>
        <mxCell id="qwdnr5w1G_35Hq9LzELt-32" value="Longitude" style="ellipse;whiteSpace=wrap;html=1;" vertex="1" parent="1">
          <mxGeometry x="213.75" y="10" width="80" height="30" as="geometry" />
        </mxCell>
        <mxCell id="qwdnr5w1G_35Hq9LzELt-33" value="Address" style="ellipse;whiteSpace=wrap;html=1;" vertex="1" parent="1">
          <mxGeometry x="20" y="75" width="80" height="30" as="geometry" />
        </mxCell>
        <mxCell id="qwdnr5w1G_35Hq9LzELt-35" value="Id" style="ellipse;whiteSpace=wrap;html=1;fontStyle=1" vertex="1" parent="1">
          <mxGeometry x="630" y="260" width="70" height="20" as="geometry" />
        </mxCell>
        <mxCell id="qwdnr5w1G_35Hq9LzELt-36" value="Manufacturer" style="ellipse;whiteSpace=wrap;html=1;" vertex="1" parent="1">
          <mxGeometry x="524.75" y="260" width="85.25" height="20" as="geometry" />
        </mxCell>
        <mxCell id="qwdnr5w1G_35Hq9LzELt-37" value="Model" style="ellipse;whiteSpace=wrap;html=1;" vertex="1" parent="1">
          <mxGeometry x="542" y="420" width="69" height="20" as="geometry" />
        </mxCell>
        <mxCell id="qwdnr5w1G_35Hq9LzELt-38" value="Name" style="ellipse;whiteSpace=wrap;html=1;" vertex="1" parent="1">
          <mxGeometry x="728.75" y="330" width="80" height="30" as="geometry" />
        </mxCell>
        <mxCell id="qwdnr5w1G_35Hq9LzELt-39" value="MaxChargingSpeed" style="ellipse;whiteSpace=wrap;html=1;" vertex="1" parent="1">
          <mxGeometry x="440" y="285" width="117" height="30" as="geometry" />
        </mxCell>
        <mxCell id="qwdnr5w1G_35Hq9LzELt-41" value="AspNetUsers" style="rounded=0;whiteSpace=wrap;html=1;fillColor=#f8cecc;strokeColor=#b85450;" vertex="1" parent="1">
          <mxGeometry x="241" y="720" width="120" height="40" as="geometry" />
        </mxCell>
        <mxCell id="qwdnr5w1G_35Hq9LzELt-42" style="edgeStyle=orthogonalEdgeStyle;rounded=0;orthogonalLoop=1;jettySize=auto;html=1;exitX=0.5;exitY=1;exitDx=0;exitDy=0;entryX=0.75;entryY=0;entryDx=0;entryDy=0;" edge="1" parent="1" source="qwdnr5w1G_35Hq9LzELt-43" target="qwdnr5w1G_35Hq9LzELt-41">
          <mxGeometry relative="1" as="geometry">
            <mxPoint x="440" y="620" as="targetPoint" />
          </mxGeometry>
        </mxCell>
        <mxCell id="qwdnr5w1G_35Hq9LzELt-43" value="Ownership" style="rhombus;whiteSpace=wrap;html=1;fillColor=#e1d5e7;strokeColor=#9673a6;" vertex="1" parent="1">
          <mxGeometry x="579.12" y="455" width="80" height="80" as="geometry" />
        </mxCell>
        <mxCell id="qwdnr5w1G_35Hq9LzELt-44" value="" style="endArrow=none;html=1;rounded=0;exitX=0.5;exitY=1;exitDx=0;exitDy=0;entryX=0.5;entryY=0;entryDx=0;entryDy=0;" edge="1" parent="1" source="qwdnr5w1G_35Hq9LzELt-28" target="qwdnr5w1G_35Hq9LzELt-43">
          <mxGeometry width="50" height="50" relative="1" as="geometry">
            <mxPoint x="309" y="675" as="sourcePoint" />
            <mxPoint x="359" y="625" as="targetPoint" />
          </mxGeometry>
        </mxCell>
        <mxCell id="PVUBcO0dEI9ad9UenGV0-1" value="" style="endArrow=none;html=1;rounded=0;exitX=0.75;exitY=0;exitDx=0;exitDy=0;entryX=0;entryY=1;entryDx=0;entryDy=0;" edge="1" parent="1" source="qwdnr5w1G_35Hq9LzELt-25" target="qwdnr5w1G_35Hq9LzELt-32">
          <mxGeometry width="50" height="50" relative="1" as="geometry">
            <mxPoint x="427" y="40" as="sourcePoint" />
            <mxPoint x="477" y="-10" as="targetPoint" />
          </mxGeometry>
        </mxCell>
        <mxCell id="PVUBcO0dEI9ad9UenGV0-2" value="ChargingInstance" style="swimlane;fontStyle=0;childLayout=stackLayout;horizontal=1;startSize=30;horizontalStack=0;resizeParent=1;resizeParentMax=0;resizeLast=0;collapsible=1;marginBottom=0;whiteSpace=wrap;html=1;" vertex="1" parent="1">
          <mxGeometry x="472" y="-1120" width="139" height="270" as="geometry" />
        </mxCell>
        <mxCell id="PVUBcO0dEI9ad9UenGV0-3" value="Id" style="text;strokeColor=none;fillColor=none;align=left;verticalAlign=middle;spacingLeft=4;spacingRight=4;overflow=hidden;points=[[0,0.5],[1,0.5]];portConstraint=eastwest;rotatable=0;whiteSpace=wrap;html=1;fontStyle=1" vertex="1" parent="PVUBcO0dEI9ad9UenGV0-2">
          <mxGeometry y="30" width="139" height="30" as="geometry" />
        </mxCell>
        <mxCell id="sgFfAgrPC_tCXcebaLDW-31" value="ChargingPortId" style="text;strokeColor=none;fillColor=none;align=left;verticalAlign=middle;spacingLeft=4;spacingRight=4;overflow=hidden;points=[[0,0.5],[1,0.5]];portConstraint=eastwest;rotatable=0;whiteSpace=wrap;html=1;" vertex="1" parent="PVUBcO0dEI9ad9UenGV0-2">
          <mxGeometry y="60" width="139" height="30" as="geometry" />
        </mxCell>
        <mxCell id="PVUBcO0dEI9ad9UenGV0-4" value="DeviceId" style="text;strokeColor=none;fillColor=none;align=left;verticalAlign=middle;spacingLeft=4;spacingRight=4;overflow=hidden;points=[[0,0.5],[1,0.5]];portConstraint=eastwest;rotatable=0;whiteSpace=wrap;html=1;" vertex="1" parent="PVUBcO0dEI9ad9UenGV0-2">
          <mxGeometry y="90" width="139" height="30" as="geometry" />
        </mxCell>
        <mxCell id="PVUBcO0dEI9ad9UenGV0-5" value="Start" style="text;strokeColor=none;fillColor=none;align=left;verticalAlign=middle;spacingLeft=4;spacingRight=4;overflow=hidden;points=[[0,0.5],[1,0.5]];portConstraint=eastwest;rotatable=0;whiteSpace=wrap;html=1;" vertex="1" parent="PVUBcO0dEI9ad9UenGV0-2">
          <mxGeometry y="120" width="139" height="30" as="geometry" />
        </mxCell>
        <mxCell id="PVUBcO0dEI9ad9UenGV0-6" value="End" style="text;strokeColor=none;fillColor=none;align=left;verticalAlign=middle;spacingLeft=4;spacingRight=4;overflow=hidden;points=[[0,0.5],[1,0.5]];portConstraint=eastwest;rotatable=0;whiteSpace=wrap;html=1;" vertex="1" parent="PVUBcO0dEI9ad9UenGV0-2">
          <mxGeometry y="150" width="139" height="30" as="geometry" />
        </mxCell>
        <mxCell id="BOoUM45k7-DTSGgLFSgU-6" value="StartingPercentage&lt;span style=&quot;color: rgba(0, 0, 0, 0); font-family: monospace; font-size: 0px; text-wrap-mode: nowrap;&quot;&gt;%3CmxGraphModel%3E%3Croot%3E%3CmxCell%20id%3D%220%22%2F%3E%3CmxCell%20id%3D%221%22%20parent%3D%220%22%2F%3E%3CmxCell%20id%3D%222%22%20value%3D%22End%22%20style%3D%22text%3BstrokeColor%3Dnone%3BfillColor%3Dnone%3Balign%3Dleft%3BverticalAlign%3Dmiddle%3BspacingLeft%3D4%3BspacingRight%3D4%3Boverflow%3Dhidden%3Bpoints%3D%5B%5B0%2C0.5%5D%2C%5B1%2C0.5%5D%5D%3BportConstraint%3Deastwest%3Brotatable%3D0%3BwhiteSpace%3Dwrap%3Bhtml%3D1%3B%22%20vertex%3D%221%22%20parent%3D%221%22%3E%3CmxGeometry%20x%3D%22481%22%20y%3D%22-965%22%20width%3D%22120%22%20height%3D%2230%22%20as%3D%22geometry%22%2F%3E%3C%2FmxCell%3E%3C%2Froot%3E%3C%2FmxGraphModel%3E&lt;/span&gt;" style="text;strokeColor=none;fillColor=none;align=left;verticalAlign=middle;spacingLeft=4;spacingRight=4;overflow=hidden;points=[[0,0.5],[1,0.5]];portConstraint=eastwest;rotatable=0;whiteSpace=wrap;html=1;" vertex="1" parent="PVUBcO0dEI9ad9UenGV0-2">
          <mxGeometry y="180" width="139" height="30" as="geometry" />
        </mxCell>
        <mxCell id="BOoUM45k7-DTSGgLFSgU-7" value="EndPercentage" style="text;strokeColor=none;fillColor=none;align=left;verticalAlign=middle;spacingLeft=4;spacingRight=4;overflow=hidden;points=[[0,0.5],[1,0.5]];portConstraint=eastwest;rotatable=0;whiteSpace=wrap;html=1;" vertex="1" parent="PVUBcO0dEI9ad9UenGV0-2">
          <mxGeometry y="210" width="139" height="30" as="geometry" />
        </mxCell>
        <mxCell id="BOoUM45k7-DTSGgLFSgU-8" value="DesiredEndPercentage" style="text;strokeColor=none;fillColor=none;align=left;verticalAlign=middle;spacingLeft=4;spacingRight=4;overflow=hidden;points=[[0,0.5],[1,0.5]];portConstraint=eastwest;rotatable=0;whiteSpace=wrap;html=1;" vertex="1" parent="PVUBcO0dEI9ad9UenGV0-2">
          <mxGeometry y="240" width="139" height="30" as="geometry" />
        </mxCell>
        <mxCell id="FFwC--dFAaDETIXZmjuK-2" value="Id" style="ellipse;whiteSpace=wrap;html=1;fontStyle=1" vertex="1" parent="1">
          <mxGeometry x="396" y="877.5" width="71" height="25" as="geometry" />
        </mxCell>
        <mxCell id="FFwC--dFAaDETIXZmjuK-3" value="FirstName" style="ellipse;whiteSpace=wrap;html=1;" vertex="1" parent="1">
          <mxGeometry x="378.87" y="917.5" width="80" height="30" as="geometry" />
        </mxCell>
        <mxCell id="FFwC--dFAaDETIXZmjuK-4" value="LastName" style="ellipse;whiteSpace=wrap;html=1;" vertex="1" parent="1">
          <mxGeometry x="335.75" y="977.5" width="66" height="20" as="geometry" />
        </mxCell>
        <mxCell id="5bu8JBSamaM4DXOYyhMr-3" value="" style="endArrow=none;html=1;rounded=0;exitX=1;exitY=1;exitDx=0;exitDy=0;entryX=0;entryY=0;entryDx=0;entryDy=0;" edge="1" parent="1" source="qwdnr5w1G_35Hq9LzELt-30" target="qwdnr5w1G_35Hq9LzELt-25">
          <mxGeometry width="50" height="50" relative="1" as="geometry">
            <mxPoint x="157" y="70" as="sourcePoint" />
            <mxPoint x="157" y="130" as="targetPoint" />
          </mxGeometry>
        </mxCell>
        <mxCell id="FFwC--dFAaDETIXZmjuK-6" value="" style="endArrow=none;html=1;rounded=0;exitX=1;exitY=0.5;exitDx=0;exitDy=0;entryX=0;entryY=0.5;entryDx=0;entryDy=0;" edge="1" parent="1" source="qwdnr5w1G_35Hq9LzELt-28" target="qwdnr5w1G_35Hq9LzELt-38">
          <mxGeometry width="50" height="50" relative="1" as="geometry">
            <mxPoint x="207" y="401.69459072647214" as="sourcePoint" />
            <mxPoint x="47" y="320" as="targetPoint" />
          </mxGeometry>
        </mxCell>
        <mxCell id="FFwC--dFAaDETIXZmjuK-7" value="" style="endArrow=none;html=1;rounded=0;exitX=0.25;exitY=1;exitDx=0;exitDy=0;entryX=0.5;entryY=0;entryDx=0;entryDy=0;" edge="1" parent="1" source="qwdnr5w1G_35Hq9LzELt-28" target="qwdnr5w1G_35Hq9LzELt-37">
          <mxGeometry width="50" height="50" relative="1" as="geometry">
            <mxPoint x="207" y="381.6049772264182" as="sourcePoint" />
            <mxPoint x="47" y="320" as="targetPoint" />
          </mxGeometry>
        </mxCell>
        <mxCell id="FFwC--dFAaDETIXZmjuK-8" value="" style="endArrow=none;html=1;rounded=0;exitX=0.25;exitY=0;exitDx=0;exitDy=0;" edge="1" parent="1" source="qwdnr5w1G_35Hq9LzELt-28" target="qwdnr5w1G_35Hq9LzELt-36">
          <mxGeometry width="50" height="50" relative="1" as="geometry">
            <mxPoint x="389" y="380" as="sourcePoint" />
            <mxPoint x="439" y="330" as="targetPoint" />
          </mxGeometry>
        </mxCell>
        <mxCell id="FFwC--dFAaDETIXZmjuK-10" value="" style="endArrow=none;html=1;rounded=0;exitX=0.75;exitY=0;exitDx=0;exitDy=0;entryX=0.5;entryY=1;entryDx=0;entryDy=0;" edge="1" parent="1" source="qwdnr5w1G_35Hq9LzELt-28" target="qwdnr5w1G_35Hq9LzELt-35">
          <mxGeometry width="50" height="50" relative="1" as="geometry">
            <mxPoint x="389" y="380" as="sourcePoint" />
            <mxPoint x="439" y="330" as="targetPoint" />
          </mxGeometry>
        </mxCell>
        <mxCell id="FFwC--dFAaDETIXZmjuK-5" value="" style="endArrow=none;html=1;rounded=0;entryX=0;entryY=0;entryDx=0;entryDy=0;exitX=1;exitY=1;exitDx=0;exitDy=0;" edge="1" parent="1" source="qwdnr5w1G_35Hq9LzELt-39" target="qwdnr5w1G_35Hq9LzELt-28">
          <mxGeometry width="50" height="50" relative="1" as="geometry">
            <mxPoint x="-3" y="470" as="sourcePoint" />
            <mxPoint x="202" y="420" as="targetPoint" />
          </mxGeometry>
        </mxCell>
        <mxCell id="5bu8JBSamaM4DXOYyhMr-2" value="" style="endArrow=none;html=1;rounded=0;exitX=0.5;exitY=1;exitDx=0;exitDy=0;entryX=0.25;entryY=0;entryDx=0;entryDy=0;" edge="1" parent="1" source="qwdnr5w1G_35Hq9LzELt-31" target="qwdnr5w1G_35Hq9LzELt-25">
          <mxGeometry width="50" height="50" relative="1" as="geometry">
            <mxPoint x="237" y="50" as="sourcePoint" />
            <mxPoint x="217" y="130" as="targetPoint" />
          </mxGeometry>
        </mxCell>
        <mxCell id="DrQEkWX4K5viTIYAwC0_-5" value="" style="endArrow=none;html=1;rounded=0;exitX=0;exitY=0;exitDx=0;exitDy=0;entryX=0.75;entryY=1;entryDx=0;entryDy=0;" edge="1" parent="1" source="FFwC--dFAaDETIXZmjuK-3" target="qwdnr5w1G_35Hq9LzELt-41">
          <mxGeometry width="50" height="50" relative="1" as="geometry">
            <mxPoint x="279.75" y="790" as="sourcePoint" />
            <mxPoint x="309" y="860" as="targetPoint" />
          </mxGeometry>
        </mxCell>
        <mxCell id="5bu8JBSamaM4DXOYyhMr-6" value="" style="endArrow=none;html=1;rounded=0;entryX=0;entryY=0.5;entryDx=0;entryDy=0;exitX=1;exitY=0.5;exitDx=0;exitDy=0;" edge="1" parent="1" source="qwdnr5w1G_35Hq9LzELt-33" target="qwdnr5w1G_35Hq9LzELt-25">
          <mxGeometry width="50" height="50" relative="1" as="geometry">
            <mxPoint x="110" y="110" as="sourcePoint" />
            <mxPoint x="145" y="194.5" as="targetPoint" />
          </mxGeometry>
        </mxCell>
        <mxCell id="DrQEkWX4K5viTIYAwC0_-12" value="End" style="ellipse;whiteSpace=wrap;html=1;flipH=0;" vertex="1" parent="1">
          <mxGeometry x="492.12" y="120" width="80" height="30" as="geometry" />
        </mxCell>
        <mxCell id="DrQEkWX4K5viTIYAwC0_-14" value="Id" style="ellipse;whiteSpace=wrap;html=1;flipH=0;fontStyle=1" vertex="1" parent="1">
          <mxGeometry x="492.12" y="210" width="59.5" height="20" as="geometry" />
        </mxCell>
        <mxCell id="DrQEkWX4K5viTIYAwC0_-16" value="" style="endArrow=none;html=1;rounded=0;entryX=0;entryY=1;entryDx=0;entryDy=0;exitX=1;exitY=0.5;exitDx=0;exitDy=0;" edge="1" parent="1" source="DrQEkWX4K5viTIYAwC0_-14" target="p1VEuEwC6bQ1uIXTAcuc-19">
          <mxGeometry width="50" height="50" relative="1" as="geometry">
            <mxPoint x="935" y="290" as="sourcePoint" />
            <mxPoint x="670.375" y="227.5" as="targetPoint" />
          </mxGeometry>
        </mxCell>
        <mxCell id="DrQEkWX4K5viTIYAwC0_-17" value="" style="endArrow=none;html=1;rounded=0;exitX=1;exitY=1;exitDx=0;exitDy=0;entryX=0;entryY=0;entryDx=0;entryDy=0;" edge="1" parent="1" source="DrQEkWX4K5viTIYAwC0_-12" target="p1VEuEwC6bQ1uIXTAcuc-19">
          <mxGeometry width="50" height="50" relative="1" as="geometry">
            <mxPoint x="644.999999999995" y="190" as="sourcePoint" />
            <mxPoint x="670.375" y="172.5" as="targetPoint" />
          </mxGeometry>
        </mxCell>
        <mxCell id="5bu8JBSamaM4DXOYyhMr-11" value="Start" style="ellipse;whiteSpace=wrap;html=1;flipH=0;" vertex="1" parent="1">
          <mxGeometry x="459" y="172.5" width="63.25" height="25" as="geometry" />
        </mxCell>
        <mxCell id="sgFfAgrPC_tCXcebaLDW-2" value="ChargingPort" style="swimlane;fontStyle=0;childLayout=stackLayout;horizontal=1;startSize=30;horizontalStack=0;resizeParent=1;resizeParentMax=0;resizeLast=0;collapsible=1;marginBottom=0;whiteSpace=wrap;html=1;" vertex="1" parent="1">
          <mxGeometry x="289" y="-1160" width="120" height="240" as="geometry" />
        </mxCell>
        <mxCell id="sgFfAgrPC_tCXcebaLDW-3" value="Id" style="text;strokeColor=none;fillColor=none;align=left;verticalAlign=middle;spacingLeft=4;spacingRight=4;overflow=hidden;points=[[0,0.5],[1,0.5]];portConstraint=eastwest;rotatable=0;whiteSpace=wrap;html=1;fontStyle=1" vertex="1" parent="sgFfAgrPC_tCXcebaLDW-2">
          <mxGeometry y="30" width="120" height="30" as="geometry" />
        </mxCell>
        <mxCell id="sgFfAgrPC_tCXcebaLDW-4" value="ChargingStationId" style="text;strokeColor=none;fillColor=none;align=left;verticalAlign=middle;spacingLeft=4;spacingRight=4;overflow=hidden;points=[[0,0.5],[1,0.5]];portConstraint=eastwest;rotatable=0;whiteSpace=wrap;html=1;fontStyle=0" vertex="1" parent="sgFfAgrPC_tCXcebaLDW-2">
          <mxGeometry y="60" width="120" height="30" as="geometry" />
        </mxCell>
        <mxCell id="sgFfAgrPC_tCXcebaLDW-5" value="IsBeingUsed" style="text;strokeColor=none;fillColor=none;align=left;verticalAlign=middle;spacingLeft=4;spacingRight=4;overflow=hidden;points=[[0,0.5],[1,0.5]];portConstraint=eastwest;rotatable=0;whiteSpace=wrap;html=1;" vertex="1" parent="sgFfAgrPC_tCXcebaLDW-2">
          <mxGeometry y="90" width="120" height="30" as="geometry" />
        </mxCell>
        <mxCell id="sgFfAgrPC_tCXcebaLDW-12" value="IsDisabled" style="text;strokeColor=none;fillColor=none;align=left;verticalAlign=middle;spacingLeft=4;spacingRight=4;overflow=hidden;points=[[0,0.5],[1,0.5]];portConstraint=eastwest;rotatable=0;whiteSpace=wrap;html=1;" vertex="1" parent="sgFfAgrPC_tCXcebaLDW-2">
          <mxGeometry y="120" width="120" height="30" as="geometry" />
        </mxCell>
        <mxCell id="BOoUM45k7-DTSGgLFSgU-3" value="IsCharging&lt;span style=&quot;color: rgba(0, 0, 0, 0); font-family: monospace; font-size: 0px; text-wrap-mode: nowrap;&quot;&gt;%3CmxGraphModel%3E%3Croot%3E%3CmxCell%20id%3D%220%22%2F%3E%3CmxCell%20id%3D%221%22%20parent%3D%220%22%2F%3E%3CmxCell%20id%3D%222%22%20value%3D%22IsDisabled%22%20style%3D%22text%3BstrokeColor%3Dnone%3BfillColor%3Dnone%3Balign%3Dleft%3BverticalAlign%3Dmiddle%3BspacingLeft%3D4%3BspacingRight%3D4%3Boverflow%3Dhidden%3Bpoints%3D%5B%5B0%2C0.5%5D%2C%5B1%2C0.5%5D%5D%3BportConstraint%3Deastwest%3Brotatable%3D0%3BwhiteSpace%3Dwrap%3Bhtml%3D1%3B%22%20vertex%3D%221%22%20parent%3D%221%22%3E%3CmxGeometry%20x%3D%22289%22%20y%3D%22-1000%22%20width%3D%22120%22%20height%3D%2230%22%20as%3D%22geometry%22%2F%3E%3C%2FmxCell%3E%3C%2Froot%3E%3C%2FmxGraphModel%3E&lt;/span&gt;" style="text;strokeColor=none;fillColor=none;align=left;verticalAlign=middle;spacingLeft=4;spacingRight=4;overflow=hidden;points=[[0,0.5],[1,0.5]];portConstraint=eastwest;rotatable=0;whiteSpace=wrap;html=1;" vertex="1" parent="sgFfAgrPC_tCXcebaLDW-2">
          <mxGeometry y="150" width="120" height="30" as="geometry" />
        </mxCell>
        <mxCell id="BOoUM45k7-DTSGgLFSgU-4" value="PortNumber" style="text;strokeColor=none;fillColor=none;align=left;verticalAlign=middle;spacingLeft=4;spacingRight=4;overflow=hidden;points=[[0,0.5],[1,0.5]];portConstraint=eastwest;rotatable=0;whiteSpace=wrap;html=1;" vertex="1" parent="sgFfAgrPC_tCXcebaLDW-2">
          <mxGeometry y="180" width="120" height="30" as="geometry" />
        </mxCell>
        <mxCell id="BOoUM45k7-DTSGgLFSgU-5" value="MaxChargingSpeed" style="text;strokeColor=none;fillColor=none;align=left;verticalAlign=middle;spacingLeft=4;spacingRight=4;overflow=hidden;points=[[0,0.5],[1,0.5]];portConstraint=eastwest;rotatable=0;whiteSpace=wrap;html=1;" vertex="1" parent="sgFfAgrPC_tCXcebaLDW-2">
          <mxGeometry y="210" width="120" height="30" as="geometry" />
        </mxCell>
        <mxCell id="sgFfAgrPC_tCXcebaLDW-13" value="ErrorTicket" style="swimlane;fontStyle=0;childLayout=stackLayout;horizontal=1;startSize=30;horizontalStack=0;resizeParent=1;resizeParentMax=0;resizeLast=0;collapsible=1;marginBottom=0;whiteSpace=wrap;html=1;" vertex="1" parent="1">
          <mxGeometry x="281.75" y="-880" width="120" height="150" as="geometry" />
        </mxCell>
        <mxCell id="sgFfAgrPC_tCXcebaLDW-14" value="Id" style="text;align=left;verticalAlign=middle;spacingLeft=4;spacingRight=4;overflow=hidden;points=[[0,0.5],[1,0.5]];portConstraint=eastwest;rotatable=0;whiteSpace=wrap;html=1;fontStyle=1" vertex="1" parent="sgFfAgrPC_tCXcebaLDW-13">
          <mxGeometry y="30" width="120" height="30" as="geometry" />
        </mxCell>
        <mxCell id="lsP097urG4iB9nfSWebx-1" value="ChargingStationId" style="text;align=left;verticalAlign=middle;spacingLeft=4;spacingRight=4;overflow=hidden;points=[[0,0.5],[1,0.5]];portConstraint=eastwest;rotatable=0;whiteSpace=wrap;html=1;" vertex="1" parent="sgFfAgrPC_tCXcebaLDW-13">
          <mxGeometry y="60" width="120" height="30" as="geometry" />
        </mxCell>
        <mxCell id="sgFfAgrPC_tCXcebaLDW-18" value="Description" style="text;align=left;verticalAlign=middle;spacingLeft=4;spacingRight=4;overflow=hidden;points=[[0,0.5],[1,0.5]];portConstraint=eastwest;rotatable=0;whiteSpace=wrap;html=1;" vertex="1" parent="sgFfAgrPC_tCXcebaLDW-13">
          <mxGeometry y="90" width="120" height="30" as="geometry" />
        </mxCell>
        <mxCell id="vn1OsgJ_xICzgvC0fHnN-3" value="IsSolved" style="text;align=left;verticalAlign=middle;spacingLeft=4;spacingRight=4;overflow=hidden;points=[[0,0.5],[1,0.5]];portConstraint=eastwest;rotatable=0;whiteSpace=wrap;html=1;" vertex="1" parent="sgFfAgrPC_tCXcebaLDW-13">
          <mxGeometry y="120" width="120" height="30" as="geometry" />
        </mxCell>
        <mxCell id="sgFfAgrPC_tCXcebaLDW-26" value="" style="edgeStyle=entityRelationEdgeStyle;fontSize=12;html=1;endArrow=ERoneToMany;rounded=0;exitX=1;exitY=0.5;exitDx=0;exitDy=0;entryX=0;entryY=0.5;entryDx=0;entryDy=0;" edge="1" parent="1" source="qwdnr5w1G_35Hq9LzELt-9" target="sgFfAgrPC_tCXcebaLDW-4">
          <mxGeometry width="100" height="100" relative="1" as="geometry">
            <mxPoint x="199" y="-990" as="sourcePoint" />
            <mxPoint x="299" y="-1090" as="targetPoint" />
          </mxGeometry>
        </mxCell>
        <mxCell id="sgFfAgrPC_tCXcebaLDW-29" value="" style="edgeStyle=entityRelationEdgeStyle;fontSize=12;html=1;endArrow=ERoneToMany;rounded=0;exitX=1;exitY=0.5;exitDx=0;exitDy=0;entryX=0;entryY=0.5;entryDx=0;entryDy=0;" edge="1" parent="1" source="sgFfAgrPC_tCXcebaLDW-3" target="sgFfAgrPC_tCXcebaLDW-31">
          <mxGeometry width="100" height="100" relative="1" as="geometry">
            <mxPoint x="429" y="-980" as="sourcePoint" />
            <mxPoint x="409" y="-1020" as="targetPoint" />
            <Array as="points">
              <mxPoint x="399" y="-970" />
              <mxPoint x="409" y="-1020" />
              <mxPoint x="399" y="-940" />
            </Array>
          </mxGeometry>
        </mxCell>
        <mxCell id="sgFfAgrPC_tCXcebaLDW-30" value="" style="edgeStyle=entityRelationEdgeStyle;fontSize=12;html=1;endArrow=ERoneToMany;rounded=0;exitX=0;exitY=0.5;exitDx=0;exitDy=0;entryX=1;entryY=0.5;entryDx=0;entryDy=0;" edge="1" parent="1" source="qwdnr5w1G_35Hq9LzELt-2" target="PVUBcO0dEI9ad9UenGV0-4">
          <mxGeometry width="100" height="100" relative="1" as="geometry">
            <mxPoint x="589" y="-770" as="sourcePoint" />
            <mxPoint x="689" y="-870" as="targetPoint" />
          </mxGeometry>
        </mxCell>
        <mxCell id="sgFfAgrPC_tCXcebaLDW-38" value="" style="edgeStyle=entityRelationEdgeStyle;fontSize=12;html=1;endArrow=ERoneToMany;rounded=0;exitX=1;exitY=0.5;exitDx=0;exitDy=0;entryX=0;entryY=0.5;entryDx=0;entryDy=0;" edge="1" parent="1" source="qwdnr5w1G_35Hq9LzELt-16" target="qwdnr5w1G_35Hq9LzELt-7">
          <mxGeometry width="100" height="100" relative="1" as="geometry">
            <mxPoint x="729" y="-630" as="sourcePoint" />
            <mxPoint x="829" y="-730" as="targetPoint" />
          </mxGeometry>
        </mxCell>
        <mxCell id="p1VEuEwC6bQ1uIXTAcuc-4" value="Name" style="ellipse;whiteSpace=wrap;html=1;" vertex="1" parent="1">
          <mxGeometry x="50" y="135" width="80" height="30" as="geometry" />
        </mxCell>
        <mxCell id="p1VEuEwC6bQ1uIXTAcuc-5" value="" style="endArrow=none;html=1;rounded=0;exitX=0;exitY=1;exitDx=0;exitDy=0;entryX=1;entryY=0;entryDx=0;entryDy=0;" edge="1" parent="1" source="qwdnr5w1G_35Hq9LzELt-25" target="p1VEuEwC6bQ1uIXTAcuc-4">
          <mxGeometry width="50" height="50" relative="1" as="geometry">
            <mxPoint x="141" y="70" as="sourcePoint" />
            <mxPoint x="129" y="135" as="targetPoint" />
          </mxGeometry>
        </mxCell>
        <mxCell id="J7ii0BVt0Hgy6ROWaT4z-2" value="ChargingPort" style="rounded=0;whiteSpace=wrap;html=1;fillColor=#f8cecc;strokeColor=#b85450;" vertex="1" parent="1">
          <mxGeometry x="559.12" y="70" width="120" height="40" as="geometry" />
        </mxCell>
        <mxCell id="J7ii0BVt0Hgy6ROWaT4z-3" value="IsDisabled" style="ellipse;whiteSpace=wrap;html=1;flipH=1;" vertex="1" parent="1">
          <mxGeometry x="639" y="10" width="71" height="20" as="geometry" />
        </mxCell>
        <mxCell id="J7ii0BVt0Hgy6ROWaT4z-4" value="IsBeingUsed" style="ellipse;whiteSpace=wrap;html=1;flipH=1;" vertex="1" parent="1">
          <mxGeometry x="716.5" y="15" width="106" height="30" as="geometry" />
        </mxCell>
        <mxCell id="J7ii0BVt0Hgy6ROWaT4z-6" value="Id" style="ellipse;whiteSpace=wrap;html=1;flipH=1;fontStyle=1" vertex="1" parent="1">
          <mxGeometry x="469" y="20" width="70" height="20" as="geometry" />
        </mxCell>
        <mxCell id="J7ii0BVt0Hgy6ROWaT4z-7" value="" style="endArrow=none;html=1;rounded=0;exitX=0.325;exitY=0.967;exitDx=0;exitDy=0;exitPerimeter=0;entryX=0;entryY=0;entryDx=0;entryDy=0;" edge="1" parent="1" source="J7ii0BVt0Hgy6ROWaT4z-6" target="J7ii0BVt0Hgy6ROWaT4z-2">
          <mxGeometry width="50" height="50" relative="1" as="geometry">
            <mxPoint x="629" y="-230" as="sourcePoint" />
            <mxPoint x="679" y="-280" as="targetPoint" />
          </mxGeometry>
        </mxCell>
        <mxCell id="J7ii0BVt0Hgy6ROWaT4z-9" value="" style="endArrow=none;html=1;rounded=0;entryX=1;entryY=0;entryDx=0;entryDy=0;exitX=0;exitY=1;exitDx=0;exitDy=0;" edge="1" parent="1" source="J7ii0BVt0Hgy6ROWaT4z-4" target="J7ii0BVt0Hgy6ROWaT4z-2">
          <mxGeometry width="50" height="50" relative="1" as="geometry">
            <mxPoint x="725" y="70" as="sourcePoint" />
            <mxPoint x="735" y="70" as="targetPoint" />
          </mxGeometry>
        </mxCell>
        <mxCell id="J7ii0BVt0Hgy6ROWaT4z-10" value="" style="endArrow=none;html=1;rounded=0;exitX=0.75;exitY=0;exitDx=0;exitDy=0;entryX=0.5;entryY=1;entryDx=0;entryDy=0;" edge="1" parent="1" source="J7ii0BVt0Hgy6ROWaT4z-2" target="J7ii0BVt0Hgy6ROWaT4z-3">
          <mxGeometry width="50" height="50" relative="1" as="geometry">
            <mxPoint x="629" y="-130" as="sourcePoint" />
            <mxPoint x="655" y="50" as="targetPoint" />
          </mxGeometry>
        </mxCell>
        <mxCell id="_vOH3oPR79xXGA9VcyY6-3" style="edgeStyle=orthogonalEdgeStyle;rounded=0;orthogonalLoop=1;jettySize=auto;html=1;exitX=0;exitY=0.5;exitDx=0;exitDy=0;entryX=1;entryY=0.5;entryDx=0;entryDy=0;" edge="1" parent="1" source="p1VEuEwC6bQ1uIXTAcuc-17" target="qwdnr5w1G_35Hq9LzELt-25">
          <mxGeometry relative="1" as="geometry" />
        </mxCell>
        <mxCell id="p1VEuEwC6bQ1uIXTAcuc-17" value="Place" style="shape=rhombus;perimeter=rhombusPerimeter;whiteSpace=wrap;html=1;align=center;fillColor=#e1d5e7;strokeColor=#9673a6;" vertex="1" parent="1">
          <mxGeometry x="294" y="45" width="98" height="90" as="geometry" />
        </mxCell>
        <mxCell id="p1VEuEwC6bQ1uIXTAcuc-19" value="ChargingInstance" style="rhombus;whiteSpace=wrap;html=1;fillColor=#e1d5e7;strokeColor=#9673a6;" vertex="1" parent="1">
          <mxGeometry x="563.87" y="130" width="110.5" height="110" as="geometry" />
        </mxCell>
        <mxCell id="p1VEuEwC6bQ1uIXTAcuc-21" value="" style="endArrow=none;html=1;rounded=0;exitX=0.5;exitY=1;exitDx=0;exitDy=0;entryX=0.5;entryY=0;entryDx=0;entryDy=0;" edge="1" parent="1" source="p1VEuEwC6bQ1uIXTAcuc-19" target="qwdnr5w1G_35Hq9LzELt-28">
          <mxGeometry width="50" height="50" relative="1" as="geometry">
            <mxPoint x="537.41" y="330" as="sourcePoint" />
            <mxPoint x="537.41" y="390" as="targetPoint" />
          </mxGeometry>
        </mxCell>
        <mxCell id="p1VEuEwC6bQ1uIXTAcuc-22" value="" style="endArrow=none;html=1;rounded=0;exitX=0.5;exitY=1;exitDx=0;exitDy=0;entryX=0.5;entryY=0;entryDx=0;entryDy=0;" edge="1" parent="1" source="J7ii0BVt0Hgy6ROWaT4z-2" target="p1VEuEwC6bQ1uIXTAcuc-19">
          <mxGeometry width="50" height="50" relative="1" as="geometry">
            <mxPoint x="540" y="180" as="sourcePoint" />
            <mxPoint x="549" y="460" as="targetPoint" />
          </mxGeometry>
        </mxCell>
        <mxCell id="p1VEuEwC6bQ1uIXTAcuc-26" value="" style="endArrow=none;html=1;rounded=0;exitX=0;exitY=0.5;exitDx=0;exitDy=0;entryX=1;entryY=0.5;entryDx=0;entryDy=0;" edge="1" parent="1" source="J7ii0BVt0Hgy6ROWaT4z-2" target="p1VEuEwC6bQ1uIXTAcuc-17">
          <mxGeometry width="50" height="50" relative="1" as="geometry">
            <mxPoint x="650" y="170" as="sourcePoint" />
            <mxPoint x="649" y="125" as="targetPoint" />
          </mxGeometry>
        </mxCell>
        <mxCell id="_vOH3oPR79xXGA9VcyY6-2" value="" style="endArrow=none;html=1;rounded=0;exitX=0;exitY=0.5;exitDx=0;exitDy=0;entryX=1;entryY=0.5;entryDx=0;entryDy=0;" edge="1" parent="1" source="p1VEuEwC6bQ1uIXTAcuc-19" target="5bu8JBSamaM4DXOYyhMr-11">
          <mxGeometry width="50" height="50" relative="1" as="geometry">
            <mxPoint x="699.2499999999995" y="200" as="sourcePoint" />
            <mxPoint x="827.5" y="310" as="targetPoint" />
          </mxGeometry>
        </mxCell>
        <mxCell id="_vOH3oPR79xXGA9VcyY6-4" value="ErrorTicket" style="rounded=0;whiteSpace=wrap;html=1;fillColor=#f8cecc;strokeColor=#b85450;" vertex="1" parent="1">
          <mxGeometry x="134" y="250" width="120" height="40" as="geometry" />
        </mxCell>
        <mxCell id="qDkfnwYLNcILlB5bK6t--1" style="edgeStyle=orthogonalEdgeStyle;rounded=0;orthogonalLoop=1;jettySize=auto;html=1;exitX=0.5;exitY=0;exitDx=0;exitDy=0;entryX=0.5;entryY=1;entryDx=0;entryDy=0;" edge="1" parent="1" source="_vOH3oPR79xXGA9VcyY6-5" target="qwdnr5w1G_35Hq9LzELt-25">
          <mxGeometry relative="1" as="geometry" />
        </mxCell>
        <mxCell id="_vOH3oPR79xXGA9VcyY6-5" value="Place" style="shape=rhombus;perimeter=rhombusPerimeter;whiteSpace=wrap;html=1;align=center;fillColor=#e1d5e7;strokeColor=#9673a6;" vertex="1" parent="1">
          <mxGeometry x="147" y="140" width="94" height="90" as="geometry" />
        </mxCell>
        <mxCell id="qDkfnwYLNcILlB5bK6t--2" value="" style="endArrow=none;html=1;rounded=0;exitX=0.5;exitY=0;exitDx=0;exitDy=0;entryX=0.5;entryY=1;entryDx=0;entryDy=0;" edge="1" parent="1" source="_vOH3oPR79xXGA9VcyY6-4" target="_vOH3oPR79xXGA9VcyY6-5">
          <mxGeometry width="50" height="50" relative="1" as="geometry">
            <mxPoint x="264" y="279.5" as="sourcePoint" />
            <mxPoint x="205" y="279.5" as="targetPoint" />
          </mxGeometry>
        </mxCell>
        <mxCell id="vn1OsgJ_xICzgvC0fHnN-1" value="&lt;b&gt;Id&lt;/b&gt;" style="ellipse;whiteSpace=wrap;html=1;" vertex="1" parent="1">
          <mxGeometry x="7" y="220" width="80" height="30" as="geometry" />
        </mxCell>
        <mxCell id="vn1OsgJ_xICzgvC0fHnN-2" value="Description" style="ellipse;whiteSpace=wrap;html=1;" vertex="1" parent="1">
          <mxGeometry x="7" y="255" width="80" height="30" as="geometry" />
        </mxCell>
        <mxCell id="vn1OsgJ_xICzgvC0fHnN-6" value="IsFinished" style="ellipse;whiteSpace=wrap;html=1;" vertex="1" parent="1">
          <mxGeometry x="8" y="290" width="80" height="30" as="geometry" />
        </mxCell>
        <mxCell id="vn1OsgJ_xICzgvC0fHnN-7" value="" style="endArrow=none;html=1;rounded=0;exitX=1;exitY=0.5;exitDx=0;exitDy=0;entryX=0;entryY=0;entryDx=0;entryDy=0;" edge="1" parent="1" source="vn1OsgJ_xICzgvC0fHnN-1" target="_vOH3oPR79xXGA9VcyY6-4">
          <mxGeometry width="50" height="50" relative="1" as="geometry">
            <mxPoint x="185" y="450" as="sourcePoint" />
            <mxPoint x="235" y="400" as="targetPoint" />
          </mxGeometry>
        </mxCell>
        <mxCell id="vn1OsgJ_xICzgvC0fHnN-8" value="" style="endArrow=none;html=1;rounded=0;exitX=1;exitY=0.5;exitDx=0;exitDy=0;entryX=0;entryY=0.5;entryDx=0;entryDy=0;" edge="1" parent="1" source="vn1OsgJ_xICzgvC0fHnN-2" target="_vOH3oPR79xXGA9VcyY6-4">
          <mxGeometry width="50" height="50" relative="1" as="geometry">
            <mxPoint x="135" y="335" as="sourcePoint" />
            <mxPoint x="167" y="340" as="targetPoint" />
          </mxGeometry>
        </mxCell>
        <mxCell id="vn1OsgJ_xICzgvC0fHnN-9" style="edgeStyle=orthogonalEdgeStyle;rounded=0;orthogonalLoop=1;jettySize=auto;html=1;exitX=0.5;exitY=1;exitDx=0;exitDy=0;" edge="1" parent="1" source="vn1OsgJ_xICzgvC0fHnN-2" target="vn1OsgJ_xICzgvC0fHnN-2">
          <mxGeometry relative="1" as="geometry" />
        </mxCell>
        <mxCell id="vn1OsgJ_xICzgvC0fHnN-10" value="" style="endArrow=none;html=1;rounded=0;exitX=1;exitY=0.5;exitDx=0;exitDy=0;entryX=0;entryY=1;entryDx=0;entryDy=0;" edge="1" parent="1" source="vn1OsgJ_xICzgvC0fHnN-6" target="_vOH3oPR79xXGA9VcyY6-4">
          <mxGeometry width="50" height="50" relative="1" as="geometry">
            <mxPoint x="145" y="345" as="sourcePoint" />
            <mxPoint x="177" y="350" as="targetPoint" />
          </mxGeometry>
        </mxCell>
        <mxCell id="ZuJdxM5GcSdyns7ZK-va-3" value="&lt;span style=&quot;font-weight: normal;&quot;&gt;DeviceType&lt;/span&gt;" style="ellipse;whiteSpace=wrap;html=1;fontStyle=1" vertex="1" parent="1">
          <mxGeometry x="704.8699999999999" y="280" width="80" height="30" as="geometry" />
        </mxCell>
        <mxCell id="ZuJdxM5GcSdyns7ZK-va-4" value="" style="endArrow=none;html=1;rounded=0;exitX=1;exitY=0;exitDx=0;exitDy=0;entryX=0;entryY=0.5;entryDx=0;entryDy=0;" edge="1" parent="1" source="qwdnr5w1G_35Hq9LzELt-28" target="ZuJdxM5GcSdyns7ZK-va-3">
          <mxGeometry width="50" height="50" relative="1" as="geometry">
            <mxPoint x="609" y="400" as="sourcePoint" />
            <mxPoint x="675" y="385" as="targetPoint" />
          </mxGeometry>
        </mxCell>
        <mxCell id="ZuJdxM5GcSdyns7ZK-va-9" value="&lt;span style=&quot;font-weight: normal;&quot;&gt;PortNumber&lt;/span&gt;" style="ellipse;whiteSpace=wrap;html=1;fontStyle=1" vertex="1" parent="1">
          <mxGeometry x="736.5" y="57.5" width="80" height="30" as="geometry" />
        </mxCell>
        <mxCell id="ZuJdxM5GcSdyns7ZK-va-10" value="" style="endArrow=none;html=1;rounded=0;exitX=1;exitY=0.5;exitDx=0;exitDy=0;entryX=0;entryY=0.5;entryDx=0;entryDy=0;" edge="1" parent="1" source="J7ii0BVt0Hgy6ROWaT4z-2" target="ZuJdxM5GcSdyns7ZK-va-9">
          <mxGeometry width="50" height="50" relative="1" as="geometry">
            <mxPoint x="695" y="160" as="sourcePoint" />
            <mxPoint x="745" y="110" as="targetPoint" />
          </mxGeometry>
        </mxCell>
        <mxCell id="SyCE59NEi6iRz4jp0s0u-15" value="AspNetRoles" style="swimlane;fontStyle=0;childLayout=stackLayout;horizontal=1;startSize=30;horizontalStack=0;resizeParent=1;resizeParentMax=0;resizeLast=0;collapsible=1;marginBottom=0;whiteSpace=wrap;html=1;" vertex="1" parent="1">
          <mxGeometry x="153" y="-570" width="120" height="150" as="geometry" />
        </mxCell>
        <mxCell id="SyCE59NEi6iRz4jp0s0u-16" value="Id" style="text;align=left;verticalAlign=middle;spacingLeft=4;spacingRight=4;overflow=hidden;points=[[0,0.5],[1,0.5]];portConstraint=eastwest;rotatable=0;whiteSpace=wrap;html=1;fontStyle=1" vertex="1" parent="SyCE59NEi6iRz4jp0s0u-15">
          <mxGeometry y="30" width="120" height="30" as="geometry" />
        </mxCell>
        <mxCell id="SyCE59NEi6iRz4jp0s0u-17" value="Name" style="text;align=left;verticalAlign=middle;spacingLeft=4;spacingRight=4;overflow=hidden;points=[[0,0.5],[1,0.5]];portConstraint=eastwest;rotatable=0;whiteSpace=wrap;html=1;" vertex="1" parent="SyCE59NEi6iRz4jp0s0u-15">
          <mxGeometry y="60" width="120" height="30" as="geometry" />
        </mxCell>
        <mxCell id="SyCE59NEi6iRz4jp0s0u-18" value="NormalizedName" style="text;align=left;verticalAlign=middle;spacingLeft=4;spacingRight=4;overflow=hidden;points=[[0,0.5],[1,0.5]];portConstraint=eastwest;rotatable=0;whiteSpace=wrap;html=1;" vertex="1" parent="SyCE59NEi6iRz4jp0s0u-15">
          <mxGeometry y="90" width="120" height="30" as="geometry" />
        </mxCell>
        <mxCell id="SyCE59NEi6iRz4jp0s0u-19" value="ConcurrencyStamp" style="text;strokeColor=none;fillColor=none;align=left;verticalAlign=middle;spacingLeft=4;spacingRight=4;overflow=hidden;points=[[0,0.5],[1,0.5]];portConstraint=eastwest;rotatable=0;whiteSpace=wrap;html=1;" vertex="1" parent="SyCE59NEi6iRz4jp0s0u-15">
          <mxGeometry y="120" width="120" height="30" as="geometry" />
        </mxCell>
        <mxCell id="SyCE59NEi6iRz4jp0s0u-20" value="AspNetUserRoles" style="swimlane;fontStyle=0;childLayout=stackLayout;horizontal=1;startSize=30;horizontalStack=0;resizeParent=1;resizeParentMax=0;resizeLast=0;collapsible=1;marginBottom=0;whiteSpace=wrap;html=1;" vertex="1" parent="1">
          <mxGeometry x="294" y="-710" width="120" height="90" as="geometry" />
        </mxCell>
        <mxCell id="SyCE59NEi6iRz4jp0s0u-21" value="&lt;span style=&quot;font-weight: normal;&quot;&gt;UserId&lt;/span&gt;" style="text;align=left;verticalAlign=middle;spacingLeft=4;spacingRight=4;overflow=hidden;points=[[0,0.5],[1,0.5]];portConstraint=eastwest;rotatable=0;whiteSpace=wrap;html=1;fontStyle=1" vertex="1" parent="SyCE59NEi6iRz4jp0s0u-20">
          <mxGeometry y="30" width="120" height="30" as="geometry" />
        </mxCell>
        <mxCell id="SyCE59NEi6iRz4jp0s0u-22" value="RoleId" style="text;align=left;verticalAlign=middle;spacingLeft=4;spacingRight=4;overflow=hidden;points=[[0,0.5],[1,0.5]];portConstraint=eastwest;rotatable=0;whiteSpace=wrap;html=1;" vertex="1" parent="SyCE59NEi6iRz4jp0s0u-20">
          <mxGeometry y="60" width="120" height="30" as="geometry" />
        </mxCell>
        <mxCell id="SyCE59NEi6iRz4jp0s0u-25" value="AspNetUserClaims" style="swimlane;fontStyle=0;childLayout=stackLayout;horizontal=1;startSize=30;horizontalStack=0;resizeParent=1;resizeParentMax=0;resizeLast=0;collapsible=1;marginBottom=0;whiteSpace=wrap;html=1;" vertex="1" parent="1">
          <mxGeometry x="696.5" y="-700" width="120" height="150" as="geometry" />
        </mxCell>
        <mxCell id="SyCE59NEi6iRz4jp0s0u-26" value="Id" style="text;align=left;verticalAlign=middle;spacingLeft=4;spacingRight=4;overflow=hidden;points=[[0,0.5],[1,0.5]];portConstraint=eastwest;rotatable=0;whiteSpace=wrap;html=1;fontStyle=1" vertex="1" parent="SyCE59NEi6iRz4jp0s0u-25">
          <mxGeometry y="30" width="120" height="30" as="geometry" />
        </mxCell>
        <mxCell id="SyCE59NEi6iRz4jp0s0u-27" value="UserId" style="text;align=left;verticalAlign=middle;spacingLeft=4;spacingRight=4;overflow=hidden;points=[[0,0.5],[1,0.5]];portConstraint=eastwest;rotatable=0;whiteSpace=wrap;html=1;" vertex="1" parent="SyCE59NEi6iRz4jp0s0u-25">
          <mxGeometry y="60" width="120" height="30" as="geometry" />
        </mxCell>
        <mxCell id="SyCE59NEi6iRz4jp0s0u-28" value="ClaimType" style="text;align=left;verticalAlign=middle;spacingLeft=4;spacingRight=4;overflow=hidden;points=[[0,0.5],[1,0.5]];portConstraint=eastwest;rotatable=0;whiteSpace=wrap;html=1;" vertex="1" parent="SyCE59NEi6iRz4jp0s0u-25">
          <mxGeometry y="90" width="120" height="30" as="geometry" />
        </mxCell>
        <mxCell id="SyCE59NEi6iRz4jp0s0u-29" value="ClaimValue" style="text;strokeColor=none;fillColor=none;align=left;verticalAlign=middle;spacingLeft=4;spacingRight=4;overflow=hidden;points=[[0,0.5],[1,0.5]];portConstraint=eastwest;rotatable=0;whiteSpace=wrap;html=1;" vertex="1" parent="SyCE59NEi6iRz4jp0s0u-25">
          <mxGeometry y="120" width="120" height="30" as="geometry" />
        </mxCell>
        <mxCell id="SyCE59NEi6iRz4jp0s0u-30" value="AspNetUserLogins" style="swimlane;fontStyle=0;childLayout=stackLayout;horizontal=1;startSize=30;horizontalStack=0;resizeParent=1;resizeParentMax=0;resizeLast=0;collapsible=1;marginBottom=0;whiteSpace=wrap;html=1;" vertex="1" parent="1">
          <mxGeometry x="696.5" y="-470" width="130" height="150" as="geometry" />
        </mxCell>
        <mxCell id="SyCE59NEi6iRz4jp0s0u-31" value="LoginProvider" style="text;align=left;verticalAlign=middle;spacingLeft=4;spacingRight=4;overflow=hidden;points=[[0,0.5],[1,0.5]];portConstraint=eastwest;rotatable=0;whiteSpace=wrap;html=1;" vertex="1" parent="SyCE59NEi6iRz4jp0s0u-30">
          <mxGeometry y="30" width="130" height="30" as="geometry" />
        </mxCell>
        <mxCell id="SyCE59NEi6iRz4jp0s0u-50" value="ProviderKey" style="text;align=left;verticalAlign=middle;spacingLeft=4;spacingRight=4;overflow=hidden;points=[[0,0.5],[1,0.5]];portConstraint=eastwest;rotatable=0;whiteSpace=wrap;html=1;" vertex="1" parent="SyCE59NEi6iRz4jp0s0u-30">
          <mxGeometry y="60" width="130" height="30" as="geometry" />
        </mxCell>
        <mxCell id="SyCE59NEi6iRz4jp0s0u-33" value="ProviderDisplayName" style="text;align=left;verticalAlign=middle;spacingLeft=4;spacingRight=4;overflow=hidden;points=[[0,0.5],[1,0.5]];portConstraint=eastwest;rotatable=0;whiteSpace=wrap;html=1;" vertex="1" parent="SyCE59NEi6iRz4jp0s0u-30">
          <mxGeometry y="90" width="130" height="30" as="geometry" />
        </mxCell>
        <mxCell id="SyCE59NEi6iRz4jp0s0u-34" value="UserId" style="text;strokeColor=none;fillColor=none;align=left;verticalAlign=middle;spacingLeft=4;spacingRight=4;overflow=hidden;points=[[0,0.5],[1,0.5]];portConstraint=eastwest;rotatable=0;whiteSpace=wrap;html=1;" vertex="1" parent="SyCE59NEi6iRz4jp0s0u-30">
          <mxGeometry y="120" width="130" height="30" as="geometry" />
        </mxCell>
        <mxCell id="SyCE59NEi6iRz4jp0s0u-44" value="AspNetUserTokens" style="swimlane;fontStyle=0;childLayout=stackLayout;horizontal=1;startSize=30;horizontalStack=0;resizeParent=1;resizeParentMax=0;resizeLast=0;collapsible=1;marginBottom=0;whiteSpace=wrap;html=1;" vertex="1" parent="1">
          <mxGeometry x="685" y="-280" width="120" height="150" as="geometry" />
        </mxCell>
        <mxCell id="SyCE59NEi6iRz4jp0s0u-45" value="UserId" style="text;align=left;verticalAlign=middle;spacingLeft=4;spacingRight=4;overflow=hidden;points=[[0,0.5],[1,0.5]];portConstraint=eastwest;rotatable=0;whiteSpace=wrap;html=1;" vertex="1" parent="SyCE59NEi6iRz4jp0s0u-44">
          <mxGeometry y="30" width="120" height="30" as="geometry" />
        </mxCell>
        <mxCell id="SyCE59NEi6iRz4jp0s0u-46" value="LoginProvider" style="text;align=left;verticalAlign=middle;spacingLeft=4;spacingRight=4;overflow=hidden;points=[[0,0.5],[1,0.5]];portConstraint=eastwest;rotatable=0;whiteSpace=wrap;html=1;" vertex="1" parent="SyCE59NEi6iRz4jp0s0u-44">
          <mxGeometry y="60" width="120" height="30" as="geometry" />
        </mxCell>
        <mxCell id="SyCE59NEi6iRz4jp0s0u-47" value="Name" style="text;align=left;verticalAlign=middle;spacingLeft=4;spacingRight=4;overflow=hidden;points=[[0,0.5],[1,0.5]];portConstraint=eastwest;rotatable=0;whiteSpace=wrap;html=1;" vertex="1" parent="SyCE59NEi6iRz4jp0s0u-44">
          <mxGeometry y="90" width="120" height="30" as="geometry" />
        </mxCell>
        <mxCell id="SyCE59NEi6iRz4jp0s0u-48" value="Value" style="text;strokeColor=none;fillColor=none;align=left;verticalAlign=middle;spacingLeft=4;spacingRight=4;overflow=hidden;points=[[0,0.5],[1,0.5]];portConstraint=eastwest;rotatable=0;whiteSpace=wrap;html=1;" vertex="1" parent="SyCE59NEi6iRz4jp0s0u-44">
          <mxGeometry y="120" width="120" height="30" as="geometry" />
        </mxCell>
        <mxCell id="SyCE59NEi6iRz4jp0s0u-53" value="AspNetRoleClaims" style="swimlane;fontStyle=0;childLayout=stackLayout;horizontal=1;startSize=30;horizontalStack=0;resizeParent=1;resizeParentMax=0;resizeLast=0;collapsible=1;marginBottom=0;whiteSpace=wrap;html=1;" vertex="1" parent="1">
          <mxGeometry x="19" y="-330" width="120" height="150" as="geometry" />
        </mxCell>
        <mxCell id="SyCE59NEi6iRz4jp0s0u-54" value="Id" style="text;align=left;verticalAlign=middle;spacingLeft=4;spacingRight=4;overflow=hidden;points=[[0,0.5],[1,0.5]];portConstraint=eastwest;rotatable=0;whiteSpace=wrap;html=1;fontStyle=1" vertex="1" parent="SyCE59NEi6iRz4jp0s0u-53">
          <mxGeometry y="30" width="120" height="30" as="geometry" />
        </mxCell>
        <mxCell id="SyCE59NEi6iRz4jp0s0u-55" value="RoleId" style="text;align=left;verticalAlign=middle;spacingLeft=4;spacingRight=4;overflow=hidden;points=[[0,0.5],[1,0.5]];portConstraint=eastwest;rotatable=0;whiteSpace=wrap;html=1;" vertex="1" parent="SyCE59NEi6iRz4jp0s0u-53">
          <mxGeometry y="60" width="120" height="30" as="geometry" />
        </mxCell>
        <mxCell id="SyCE59NEi6iRz4jp0s0u-56" value="ClaimType" style="text;align=left;verticalAlign=middle;spacingLeft=4;spacingRight=4;overflow=hidden;points=[[0,0.5],[1,0.5]];portConstraint=eastwest;rotatable=0;whiteSpace=wrap;html=1;" vertex="1" parent="SyCE59NEi6iRz4jp0s0u-53">
          <mxGeometry y="90" width="120" height="30" as="geometry" />
        </mxCell>
        <mxCell id="SyCE59NEi6iRz4jp0s0u-57" value="ClaimValue" style="text;strokeColor=none;fillColor=none;align=left;verticalAlign=middle;spacingLeft=4;spacingRight=4;overflow=hidden;points=[[0,0.5],[1,0.5]];portConstraint=eastwest;rotatable=0;whiteSpace=wrap;html=1;" vertex="1" parent="SyCE59NEi6iRz4jp0s0u-53">
          <mxGeometry y="120" width="120" height="30" as="geometry" />
        </mxCell>
        <mxCell id="SyCE59NEi6iRz4jp0s0u-58" value="" style="edgeStyle=entityRelationEdgeStyle;fontSize=12;html=1;endArrow=ERoneToMany;rounded=0;exitX=1;exitY=0.5;exitDx=0;exitDy=0;entryX=0;entryY=0.5;entryDx=0;entryDy=0;" edge="1" parent="1" source="SyCE59NEi6iRz4jp0s0u-16" target="SyCE59NEi6iRz4jp0s0u-22">
          <mxGeometry width="100" height="100" relative="1" as="geometry">
            <mxPoint x="279" y="-470" as="sourcePoint" />
            <mxPoint x="320" y="-560" as="targetPoint" />
            <Array as="points">
              <mxPoint x="380" y="-550" />
            </Array>
          </mxGeometry>
        </mxCell>
        <mxCell id="SyCE59NEi6iRz4jp0s0u-60" value="" style="edgeStyle=entityRelationEdgeStyle;fontSize=12;html=1;endArrow=ERoneToMany;rounded=0;entryX=1;entryY=0.5;entryDx=0;entryDy=0;exitX=0;exitY=0.5;exitDx=0;exitDy=0;" edge="1" parent="1" source="qwdnr5w1G_35Hq9LzELt-16" target="SyCE59NEi6iRz4jp0s0u-21">
          <mxGeometry width="100" height="100" relative="1" as="geometry">
            <mxPoint x="400" y="-560" as="sourcePoint" />
            <mxPoint x="339" y="-530" as="targetPoint" />
          </mxGeometry>
        </mxCell>
        <mxCell id="SyCE59NEi6iRz4jp0s0u-61" value="" style="edgeStyle=entityRelationEdgeStyle;fontSize=12;html=1;endArrow=ERoneToMany;rounded=0;entryX=0;entryY=0.5;entryDx=0;entryDy=0;exitX=1;exitY=0.5;exitDx=0;exitDy=0;" edge="1" parent="1" source="qwdnr5w1G_35Hq9LzELt-16" target="SyCE59NEi6iRz4jp0s0u-27">
          <mxGeometry width="100" height="100" relative="1" as="geometry">
            <mxPoint x="629" y="-500" as="sourcePoint" />
            <mxPoint x="729" y="-600" as="targetPoint" />
          </mxGeometry>
        </mxCell>
        <mxCell id="SyCE59NEi6iRz4jp0s0u-62" value="" style="edgeStyle=entityRelationEdgeStyle;fontSize=12;html=1;endArrow=ERmany;rounded=0;entryX=1;entryY=0.5;entryDx=0;entryDy=0;exitX=0;exitY=0.5;exitDx=0;exitDy=0;" edge="1" parent="1" source="SyCE59NEi6iRz4jp0s0u-16" target="SyCE59NEi6iRz4jp0s0u-55">
          <mxGeometry width="100" height="100" relative="1" as="geometry">
            <mxPoint x="109" y="-340" as="sourcePoint" />
            <mxPoint x="219" y="-450" as="targetPoint" />
          </mxGeometry>
        </mxCell>
        <mxCell id="SyCE59NEi6iRz4jp0s0u-63" value="" style="edgeStyle=entityRelationEdgeStyle;fontSize=12;html=1;endArrow=ERoneToMany;rounded=0;entryX=0;entryY=0.5;entryDx=0;entryDy=0;exitX=1;exitY=0.5;exitDx=0;exitDy=0;" edge="1" parent="1" source="qwdnr5w1G_35Hq9LzELt-16" target="SyCE59NEi6iRz4jp0s0u-34">
          <mxGeometry width="100" height="100" relative="1" as="geometry">
            <mxPoint x="649" y="-150" as="sourcePoint" />
            <mxPoint x="749" y="-250" as="targetPoint" />
          </mxGeometry>
        </mxCell>
        <mxCell id="SyCE59NEi6iRz4jp0s0u-64" value="" style="edgeStyle=entityRelationEdgeStyle;fontSize=12;html=1;endArrow=ERmany;rounded=0;entryX=0;entryY=0.5;entryDx=0;entryDy=0;exitX=1;exitY=0.5;exitDx=0;exitDy=0;" edge="1" parent="1" source="qwdnr5w1G_35Hq9LzELt-16" target="SyCE59NEi6iRz4jp0s0u-45">
          <mxGeometry width="100" height="100" relative="1" as="geometry">
            <mxPoint x="450" y="-30" as="sourcePoint" />
            <mxPoint x="550" y="-130" as="targetPoint" />
          </mxGeometry>
        </mxCell>
        <mxCell id="SyCE59NEi6iRz4jp0s0u-66" value="AspNetUserRoles" style="shape=rhombus;perimeter=rhombusPerimeter;whiteSpace=wrap;html=1;align=center;fillColor=#e1d5e7;strokeColor=#9673a6;" vertex="1" parent="1">
          <mxGeometry x="249" y="527.5" width="104" height="100" as="geometry" />
        </mxCell>
        <mxCell id="SyCE59NEi6iRz4jp0s0u-70" value="AspNetRoles" style="rounded=0;whiteSpace=wrap;html=1;fillColor=#f8cecc;strokeColor=#b85450;" vertex="1" parent="1">
          <mxGeometry x="241" y="420" width="120" height="40" as="geometry" />
        </mxCell>
        <mxCell id="SyCE59NEi6iRz4jp0s0u-71" value="AspNetRoleClaims" style="rounded=0;whiteSpace=wrap;html=1;fillColor=#f8cecc;strokeColor=#b85450;" vertex="1" parent="1">
          <mxGeometry y="420" width="120" height="40" as="geometry" />
        </mxCell>
        <mxCell id="ORTwL6DIZSNTfP98BgTo-1" value="" style="endArrow=none;html=1;rounded=0;exitX=0.5;exitY=0;exitDx=0;exitDy=0;entryX=0.5;entryY=1;entryDx=0;entryDy=0;" edge="1" parent="1" source="qwdnr5w1G_35Hq9LzELt-41" target="SyCE59NEi6iRz4jp0s0u-66">
          <mxGeometry width="50" height="50" relative="1" as="geometry">
            <mxPoint x="296.75" y="800" as="sourcePoint" />
            <mxPoint x="346.75" y="750" as="targetPoint" />
          </mxGeometry>
        </mxCell>
        <mxCell id="ORTwL6DIZSNTfP98BgTo-2" value="" style="endArrow=none;html=1;rounded=0;entryX=0.5;entryY=0;entryDx=0;entryDy=0;exitX=0.5;exitY=1;exitDx=0;exitDy=0;" edge="1" parent="1" source="SyCE59NEi6iRz4jp0s0u-70" target="SyCE59NEi6iRz4jp0s0u-66">
          <mxGeometry width="50" height="50" relative="1" as="geometry">
            <mxPoint x="296.75" y="740" as="sourcePoint" />
            <mxPoint x="376.75" y="650" as="targetPoint" />
          </mxGeometry>
        </mxCell>
        <mxCell id="W8wy3oiUjJ72v0XoYn1a-1" value="&lt;span style=&quot;font-weight: normal;&quot;&gt;NormalizedName&lt;/span&gt;" style="ellipse;whiteSpace=wrap;html=1;fontStyle=1" vertex="1" parent="1">
          <mxGeometry x="202.25" y="370" width="103" height="30" as="geometry" />
        </mxCell>
        <mxCell id="yFkbp9C4CqE6wYUVbsLW-5" style="edgeStyle=orthogonalEdgeStyle;rounded=0;orthogonalLoop=1;jettySize=auto;html=1;exitX=1;exitY=0.5;exitDx=0;exitDy=0;entryX=0;entryY=0.5;entryDx=0;entryDy=0;" edge="1" parent="1" source="yFkbp9C4CqE6wYUVbsLW-2" target="SyCE59NEi6iRz4jp0s0u-70">
          <mxGeometry relative="1" as="geometry" />
        </mxCell>
        <mxCell id="yFkbp9C4CqE6wYUVbsLW-2" value="Assigned to" style="shape=rhombus;perimeter=rhombusPerimeter;whiteSpace=wrap;html=1;align=center;fillColor=#e1d5e7;strokeColor=#9673a6;" vertex="1" parent="1">
          <mxGeometry x="140" y="412.5" width="80" height="55" as="geometry" />
        </mxCell>
        <mxCell id="W8wy3oiUjJ72v0XoYn1a-17" value="" style="endArrow=none;html=1;rounded=0;entryX=0.75;entryY=1;entryDx=0;entryDy=0;exitX=0;exitY=0;exitDx=0;exitDy=0;" edge="1" parent="1" source="W8wy3oiUjJ72v0XoYn1a-13" target="SyCE59NEi6iRz4jp0s0u-71">
          <mxGeometry width="50" height="50" relative="1" as="geometry">
            <mxPoint x="200" y="230" as="sourcePoint" />
            <mxPoint x="250" y="180" as="targetPoint" />
          </mxGeometry>
        </mxCell>
        <mxCell id="W8wy3oiUjJ72v0XoYn1a-3" value="&lt;span style=&quot;font-weight: normal;&quot;&gt;Name&lt;/span&gt;" style="ellipse;whiteSpace=wrap;html=1;fontStyle=1" vertex="1" parent="1">
          <mxGeometry x="395.75" y="427.5" width="68.25" height="25" as="geometry" />
        </mxCell>
        <mxCell id="W8wy3oiUjJ72v0XoYn1a-7" value="" style="endArrow=none;html=1;rounded=0;exitX=0.75;exitY=0;exitDx=0;exitDy=0;entryX=0.5;entryY=1;entryDx=0;entryDy=0;" edge="1" parent="1" source="SyCE59NEi6iRz4jp0s0u-70" target="yFkbp9C4CqE6wYUVbsLW-7">
          <mxGeometry width="50" height="50" relative="1" as="geometry">
            <mxPoint x="200" y="380" as="sourcePoint" />
            <mxPoint x="250" y="330" as="targetPoint" />
          </mxGeometry>
        </mxCell>
        <mxCell id="W8wy3oiUjJ72v0XoYn1a-8" value="" style="endArrow=none;html=1;rounded=0;exitX=0.25;exitY=0;exitDx=0;exitDy=0;entryX=0.5;entryY=1;entryDx=0;entryDy=0;" edge="1" parent="1" source="SyCE59NEi6iRz4jp0s0u-70" target="W8wy3oiUjJ72v0XoYn1a-1">
          <mxGeometry width="50" height="50" relative="1" as="geometry">
            <mxPoint x="200" y="380" as="sourcePoint" />
            <mxPoint x="250" y="330" as="targetPoint" />
          </mxGeometry>
        </mxCell>
        <mxCell id="W8wy3oiUjJ72v0XoYn1a-18" value="" style="endArrow=none;html=1;rounded=0;exitX=0.5;exitY=0;exitDx=0;exitDy=0;entryX=0.25;entryY=1;entryDx=0;entryDy=0;" edge="1" parent="1" source="W8wy3oiUjJ72v0XoYn1a-14" target="SyCE59NEi6iRz4jp0s0u-71">
          <mxGeometry width="50" height="50" relative="1" as="geometry">
            <mxPoint x="200" y="230" as="sourcePoint" />
            <mxPoint x="250" y="180" as="targetPoint" />
          </mxGeometry>
        </mxCell>
        <mxCell id="W8wy3oiUjJ72v0XoYn1a-13" value="&lt;span style=&quot;font-weight: normal;&quot;&gt;ClaimType&lt;/span&gt;" style="ellipse;whiteSpace=wrap;html=1;fontStyle=1" vertex="1" parent="1">
          <mxGeometry x="110" y="497.5" width="80" height="30" as="geometry" />
        </mxCell>
        <mxCell id="W8wy3oiUjJ72v0XoYn1a-14" value="&lt;span style=&quot;font-weight: normal;&quot;&gt;ClaimValue&lt;/span&gt;" style="ellipse;whiteSpace=wrap;html=1;fontStyle=1" vertex="1" parent="1">
          <mxGeometry y="500" width="80" height="30" as="geometry" />
        </mxCell>
        <mxCell id="ORTwL6DIZSNTfP98BgTo-6" value="" style="endArrow=none;html=1;rounded=0;entryX=0;entryY=0;entryDx=0;entryDy=0;exitX=1;exitY=1;exitDx=0;exitDy=0;" edge="1" parent="1" source="SyCE59NEi6iRz4jp0s0u-70" target="W8wy3oiUjJ72v0XoYn1a-5">
          <mxGeometry width="50" height="50" relative="1" as="geometry">
            <mxPoint x="400" y="470" as="sourcePoint" />
            <mxPoint x="346.0995998592166" y="489.2698532817126" as="targetPoint" />
          </mxGeometry>
        </mxCell>
        <mxCell id="ORTwL6DIZSNTfP98BgTo-7" value="" style="endArrow=none;html=1;rounded=0;exitX=1;exitY=0.5;exitDx=0;exitDy=0;entryX=0;entryY=0.5;entryDx=0;entryDy=0;" edge="1" parent="1" source="SyCE59NEi6iRz4jp0s0u-70" target="W8wy3oiUjJ72v0XoYn1a-3">
          <mxGeometry width="50" height="50" relative="1" as="geometry">
            <mxPoint x="230" y="710" as="sourcePoint" />
            <mxPoint x="280" y="660" as="targetPoint" />
          </mxGeometry>
        </mxCell>
        <mxCell id="W8wy3oiUjJ72v0XoYn1a-15" value="" style="endArrow=none;html=1;rounded=0;exitX=0.75;exitY=0;exitDx=0;exitDy=0;entryX=0;entryY=1;entryDx=0;entryDy=0;" edge="1" parent="1" source="SyCE59NEi6iRz4jp0s0u-71" target="W8wy3oiUjJ72v0XoYn1a-12">
          <mxGeometry width="50" height="50" relative="1" as="geometry">
            <mxPoint x="200" y="230" as="sourcePoint" />
            <mxPoint x="250" y="180" as="targetPoint" />
          </mxGeometry>
        </mxCell>
        <mxCell id="yFkbp9C4CqE6wYUVbsLW-6" value="" style="endArrow=none;html=1;rounded=0;entryX=1;entryY=0.5;entryDx=0;entryDy=0;exitX=0;exitY=0.5;exitDx=0;exitDy=0;" edge="1" parent="1" source="yFkbp9C4CqE6wYUVbsLW-2" target="SyCE59NEi6iRz4jp0s0u-71">
          <mxGeometry width="50" height="50" relative="1" as="geometry">
            <mxPoint x="120" y="484.72" as="sourcePoint" />
            <mxPoint x="200" y="484.72" as="targetPoint" />
          </mxGeometry>
        </mxCell>
        <mxCell id="yFkbp9C4CqE6wYUVbsLW-7" value="Id" style="ellipse;whiteSpace=wrap;html=1;fontStyle=1" vertex="1" parent="1">
          <mxGeometry x="322" y="380" width="74" height="20" as="geometry" />
        </mxCell>
        <mxCell id="W8wy3oiUjJ72v0XoYn1a-5" value="&lt;span style=&quot;font-weight: normal;&quot;&gt;ConcurrencyStamp&lt;/span&gt;" style="ellipse;whiteSpace=wrap;html=1;fontStyle=1" vertex="1" parent="1">
          <mxGeometry x="396" y="480" width="116.25" height="32.5" as="geometry" />
        </mxCell>
        <mxCell id="W8wy3oiUjJ72v0XoYn1a-12" value="Id" style="ellipse;whiteSpace=wrap;html=1;fontStyle=1" vertex="1" parent="1">
          <mxGeometry x="80" y="370" width="80" height="30" as="geometry" />
        </mxCell>
        <mxCell id="ORTwL6DIZSNTfP98BgTo-8" value="AspNetUserClaims" style="rounded=0;whiteSpace=wrap;html=1;fillColor=#f8cecc;strokeColor=#b85450;" vertex="1" parent="1">
          <mxGeometry x="592.5" y="965" width="117.5" height="40" as="geometry" />
        </mxCell>
        <mxCell id="ORTwL6DIZSNTfP98BgTo-9" value="AspNetUserLogins" style="rounded=0;whiteSpace=wrap;html=1;fillColor=#f8cecc;strokeColor=#b85450;" vertex="1" parent="1">
          <mxGeometry x="625.5" y="800" width="120" height="40" as="geometry" />
        </mxCell>
        <mxCell id="ORTwL6DIZSNTfP98BgTo-10" value="AspNetUserTokens" style="rounded=0;whiteSpace=wrap;html=1;fillColor=#f8cecc;strokeColor=#b85450;" vertex="1" parent="1">
          <mxGeometry x="634.5" y="710" width="120" height="40" as="geometry" />
        </mxCell>
        <mxCell id="lM4vLlaQatQxSaO2jNzz-23" style="edgeStyle=orthogonalEdgeStyle;rounded=0;orthogonalLoop=1;jettySize=auto;html=1;entryX=1;entryY=0.5;entryDx=0;entryDy=0;" edge="1" parent="1" source="ORTwL6DIZSNTfP98BgTo-11" target="qwdnr5w1G_35Hq9LzELt-41">
          <mxGeometry relative="1" as="geometry">
            <Array as="points">
              <mxPoint x="490" y="820" />
              <mxPoint x="490" y="740" />
            </Array>
          </mxGeometry>
        </mxCell>
        <mxCell id="ORTwL6DIZSNTfP98BgTo-11" value="Logins" style="shape=rhombus;perimeter=rhombusPerimeter;whiteSpace=wrap;html=1;align=center;fillColor=#e1d5e7;strokeColor=#9673a6;" vertex="1" parent="1">
          <mxGeometry x="507" y="792.5" width="76.25" height="55" as="geometry" />
        </mxCell>
        <mxCell id="lM4vLlaQatQxSaO2jNzz-22" style="edgeStyle=orthogonalEdgeStyle;rounded=0;orthogonalLoop=1;jettySize=auto;html=1;entryX=1;entryY=0.25;entryDx=0;entryDy=0;" edge="1" parent="1" source="ORTwL6DIZSNTfP98BgTo-12" target="qwdnr5w1G_35Hq9LzELt-41">
          <mxGeometry relative="1" as="geometry" />
        </mxCell>
        <mxCell id="ORTwL6DIZSNTfP98BgTo-12" value="Tokens" style="shape=rhombus;perimeter=rhombusPerimeter;whiteSpace=wrap;html=1;align=center;fillColor=#e1d5e7;strokeColor=#9673a6;" vertex="1" parent="1">
          <mxGeometry x="492.12" y="700" width="80" height="60" as="geometry" />
        </mxCell>
        <mxCell id="lM4vLlaQatQxSaO2jNzz-24" style="edgeStyle=orthogonalEdgeStyle;rounded=0;orthogonalLoop=1;jettySize=auto;html=1;entryX=1;entryY=0.75;entryDx=0;entryDy=0;" edge="1" parent="1" source="ORTwL6DIZSNTfP98BgTo-13" target="qwdnr5w1G_35Hq9LzELt-41">
          <mxGeometry relative="1" as="geometry">
            <Array as="points">
              <mxPoint x="480" y="918" />
              <mxPoint x="480" y="750" />
            </Array>
          </mxGeometry>
        </mxCell>
        <mxCell id="ORTwL6DIZSNTfP98BgTo-13" value="Claims" style="shape=rhombus;perimeter=rhombusPerimeter;whiteSpace=wrap;html=1;align=center;fillColor=#e1d5e7;strokeColor=#9673a6;" vertex="1" parent="1">
          <mxGeometry x="512.87" y="892.5" width="66.25" height="50" as="geometry" />
        </mxCell>
        <mxCell id="ORTwL6DIZSNTfP98BgTo-21" value="LoginProvier" style="ellipse;whiteSpace=wrap;html=1;" vertex="1" parent="1">
          <mxGeometry x="574.5" y="862.5" width="80" height="30" as="geometry" />
        </mxCell>
        <mxCell id="yFkbp9C4CqE6wYUVbsLW-15" value="" style="endArrow=none;html=1;rounded=0;entryX=1;entryY=0.5;entryDx=0;entryDy=0;exitX=0;exitY=0.5;exitDx=0;exitDy=0;" edge="1" parent="1" source="ORTwL6DIZSNTfP98BgTo-9" target="ORTwL6DIZSNTfP98BgTo-11">
          <mxGeometry width="50" height="50" relative="1" as="geometry">
            <mxPoint x="978.75" y="877.5" as="sourcePoint" />
            <mxPoint x="1028.75" y="827.5" as="targetPoint" />
          </mxGeometry>
        </mxCell>
        <mxCell id="ORTwL6DIZSNTfP98BgTo-22" value="ProviderKey" style="ellipse;whiteSpace=wrap;html=1;" vertex="1" parent="1">
          <mxGeometry x="623.56" y="900" width="80" height="30" as="geometry" />
        </mxCell>
        <mxCell id="yFkbp9C4CqE6wYUVbsLW-16" value="" style="endArrow=none;html=1;rounded=0;entryX=0;entryY=0;entryDx=0;entryDy=0;exitX=1;exitY=1;exitDx=0;exitDy=0;" edge="1" parent="1" source="ORTwL6DIZSNTfP98BgTo-13" target="ORTwL6DIZSNTfP98BgTo-8">
          <mxGeometry width="50" height="50" relative="1" as="geometry">
            <mxPoint x="1197.75" y="971.79" as="sourcePoint" />
            <mxPoint x="1316.75" y="971.79" as="targetPoint" />
          </mxGeometry>
        </mxCell>
        <mxCell id="ORTwL6DIZSNTfP98BgTo-23" value="ProviderDisplayName" style="ellipse;whiteSpace=wrap;html=1;" vertex="1" parent="1">
          <mxGeometry x="692.1899999999999" y="865" width="125.13" height="27.5" as="geometry" />
        </mxCell>
        <mxCell id="yFkbp9C4CqE6wYUVbsLW-17" value="ClaimType" style="ellipse;whiteSpace=wrap;html=1;" vertex="1" parent="1">
          <mxGeometry x="505.99" y="1060" width="80" height="30" as="geometry" />
        </mxCell>
        <mxCell id="yFkbp9C4CqE6wYUVbsLW-14" value="" style="endArrow=none;html=1;rounded=0;entryX=1;entryY=0.5;entryDx=0;entryDy=0;exitX=0;exitY=0.5;exitDx=0;exitDy=0;" edge="1" parent="1" source="ORTwL6DIZSNTfP98BgTo-10" target="ORTwL6DIZSNTfP98BgTo-12">
          <mxGeometry width="50" height="50" relative="1" as="geometry">
            <mxPoint x="908.75" y="767.5" as="sourcePoint" />
            <mxPoint x="888.75" y="710" as="targetPoint" />
          </mxGeometry>
        </mxCell>
        <mxCell id="ORTwL6DIZSNTfP98BgTo-26" value="" style="endArrow=none;html=1;rounded=0;exitX=0.25;exitY=1;exitDx=0;exitDy=0;entryX=0.5;entryY=0;entryDx=0;entryDy=0;" edge="1" parent="1" source="ORTwL6DIZSNTfP98BgTo-9" target="ORTwL6DIZSNTfP98BgTo-21">
          <mxGeometry width="50" height="50" relative="1" as="geometry">
            <mxPoint x="938.75" y="967.5" as="sourcePoint" />
            <mxPoint x="888.75" y="1067.5" as="targetPoint" />
          </mxGeometry>
        </mxCell>
        <mxCell id="ORTwL6DIZSNTfP98BgTo-27" value="" style="endArrow=none;html=1;rounded=0;exitX=1;exitY=1;exitDx=0;exitDy=0;entryX=0.5;entryY=0;entryDx=0;entryDy=0;" edge="1" parent="1" source="ORTwL6DIZSNTfP98BgTo-9" target="ORTwL6DIZSNTfP98BgTo-23">
          <mxGeometry width="50" height="50" relative="1" as="geometry">
            <mxPoint x="888.75" y="1127.5" as="sourcePoint" />
            <mxPoint x="938.75" y="1077.5" as="targetPoint" />
          </mxGeometry>
        </mxCell>
        <mxCell id="yFkbp9C4CqE6wYUVbsLW-18" value="ClaimValue" style="ellipse;whiteSpace=wrap;html=1;" vertex="1" parent="1">
          <mxGeometry x="605" y="1060" width="80" height="30" as="geometry" />
        </mxCell>
        <mxCell id="ORTwL6DIZSNTfP98BgTo-28" value="" style="endArrow=none;html=1;rounded=0;exitX=0.5;exitY=1;exitDx=0;exitDy=0;entryX=0.5;entryY=0;entryDx=0;entryDy=0;" edge="1" parent="1" source="ORTwL6DIZSNTfP98BgTo-9" target="ORTwL6DIZSNTfP98BgTo-22">
          <mxGeometry width="50" height="50" relative="1" as="geometry">
            <mxPoint x="1038.75" y="1137.5" as="sourcePoint" />
            <mxPoint x="700" y="890" as="targetPoint" />
          </mxGeometry>
        </mxCell>
        <mxCell id="yFkbp9C4CqE6wYUVbsLW-19" value="&lt;b&gt;Id&lt;/b&gt;" style="ellipse;whiteSpace=wrap;html=1;" vertex="1" parent="1">
          <mxGeometry x="701.48" y="1060" width="80" height="30" as="geometry" />
        </mxCell>
        <mxCell id="yFkbp9C4CqE6wYUVbsLW-20" value="" style="endArrow=none;html=1;rounded=0;exitX=0.5;exitY=1;exitDx=0;exitDy=0;entryX=0.5;entryY=0;entryDx=0;entryDy=0;" edge="1" parent="1" source="ORTwL6DIZSNTfP98BgTo-8" target="yFkbp9C4CqE6wYUVbsLW-18">
          <mxGeometry width="50" height="50" relative="1" as="geometry">
            <mxPoint x="707.75" y="957.5" as="sourcePoint" />
            <mxPoint x="747.75" y="1002.5" as="targetPoint" />
          </mxGeometry>
        </mxCell>
        <mxCell id="yFkbp9C4CqE6wYUVbsLW-21" value="" style="endArrow=none;html=1;rounded=0;exitX=0.5;exitY=0;exitDx=0;exitDy=0;entryX=0.75;entryY=1;entryDx=0;entryDy=0;" edge="1" parent="1" source="yFkbp9C4CqE6wYUVbsLW-19" target="ORTwL6DIZSNTfP98BgTo-8">
          <mxGeometry width="50" height="50" relative="1" as="geometry">
            <mxPoint x="848.75" y="1117.5" as="sourcePoint" />
            <mxPoint x="840.75" y="1157.5" as="targetPoint" />
          </mxGeometry>
        </mxCell>
        <mxCell id="yFkbp9C4CqE6wYUVbsLW-22" value="" style="endArrow=none;html=1;rounded=0;entryX=1;entryY=0;entryDx=0;entryDy=0;exitX=0.25;exitY=1;exitDx=0;exitDy=0;" edge="1" parent="1" source="ORTwL6DIZSNTfP98BgTo-8" target="yFkbp9C4CqE6wYUVbsLW-17">
          <mxGeometry width="50" height="50" relative="1" as="geometry">
            <mxPoint x="568.75" y="967.5" as="sourcePoint" />
            <mxPoint x="618.75" y="917.5" as="targetPoint" />
          </mxGeometry>
        </mxCell>
        <mxCell id="BFG2Hu75D-EqaMDNUX-c-1" value="LoginProvider" style="ellipse;whiteSpace=wrap;html=1;" vertex="1" parent="1">
          <mxGeometry x="563.87" y="657.5" width="80" height="30" as="geometry" />
        </mxCell>
        <mxCell id="BFG2Hu75D-EqaMDNUX-c-2" value="Name" style="ellipse;whiteSpace=wrap;html=1;" vertex="1" parent="1">
          <mxGeometry x="654.5" y="642.5" width="80" height="30" as="geometry" />
        </mxCell>
        <mxCell id="BFG2Hu75D-EqaMDNUX-c-3" value="Value" style="ellipse;whiteSpace=wrap;html=1;" vertex="1" parent="1">
          <mxGeometry x="741" y="670" width="80" height="30" as="geometry" />
        </mxCell>
        <mxCell id="BFG2Hu75D-EqaMDNUX-c-5" value="" style="endArrow=none;html=1;rounded=0;exitX=1;exitY=1;exitDx=0;exitDy=0;entryX=0.25;entryY=0;entryDx=0;entryDy=0;" edge="1" parent="1" source="BFG2Hu75D-EqaMDNUX-c-1" target="ORTwL6DIZSNTfP98BgTo-10">
          <mxGeometry width="50" height="50" relative="1" as="geometry">
            <mxPoint x="618.75" y="907.5" as="sourcePoint" />
            <mxPoint x="668.75" y="857.5" as="targetPoint" />
          </mxGeometry>
        </mxCell>
        <mxCell id="BFG2Hu75D-EqaMDNUX-c-6" value="" style="endArrow=none;html=1;rounded=0;entryX=0.5;entryY=0;entryDx=0;entryDy=0;exitX=0.5;exitY=1;exitDx=0;exitDy=0;" edge="1" parent="1" source="BFG2Hu75D-EqaMDNUX-c-2" target="ORTwL6DIZSNTfP98BgTo-10">
          <mxGeometry width="50" height="50" relative="1" as="geometry">
            <mxPoint x="608.75" y="907.5" as="sourcePoint" />
            <mxPoint x="658.75" y="857.5" as="targetPoint" />
          </mxGeometry>
        </mxCell>
        <mxCell id="BFG2Hu75D-EqaMDNUX-c-7" value="" style="endArrow=none;html=1;rounded=0;exitX=0.75;exitY=0;exitDx=0;exitDy=0;entryX=0;entryY=0.5;entryDx=0;entryDy=0;" edge="1" parent="1" source="ORTwL6DIZSNTfP98BgTo-10" target="BFG2Hu75D-EqaMDNUX-c-3">
          <mxGeometry width="50" height="50" relative="1" as="geometry">
            <mxPoint x="618.75" y="917.5" as="sourcePoint" />
            <mxPoint x="668.75" y="867.5" as="targetPoint" />
          </mxGeometry>
        </mxCell>
        <mxCell id="sgFfAgrPC_tCXcebaLDW-41" value="" style="edgeStyle=entityRelationEdgeStyle;fontSize=12;html=1;endArrow=ERoneToMany;rounded=0;fillColor=#ffe6cc;strokeColor=#000000;entryX=0;entryY=0.5;entryDx=0;entryDy=0;exitX=1;exitY=0.25;exitDx=0;exitDy=0;" edge="1" parent="1" source="qwdnr5w1G_35Hq9LzELt-8" target="lsP097urG4iB9nfSWebx-1">
          <mxGeometry width="100" height="100" relative="1" as="geometry">
            <mxPoint x="190" y="-1060" as="sourcePoint" />
            <mxPoint x="179" y="-810" as="targetPoint" />
            <Array as="points">
              <mxPoint x="200" y="-990" />
              <mxPoint x="190" y="-890" />
              <mxPoint x="240" y="-880" />
            </Array>
          </mxGeometry>
        </mxCell>
        <mxCell id="lsP097urG4iB9nfSWebx-4" value="DetachableBattery" style="ellipse;whiteSpace=wrap;html=1;" vertex="1" parent="1">
          <mxGeometry x="419" y="360" width="111" height="30" as="geometry" />
        </mxCell>
        <mxCell id="lsP097urG4iB9nfSWebx-5" value="IsFoldable" style="ellipse;whiteSpace=wrap;html=1;" vertex="1" parent="1">
          <mxGeometry x="703.5600000000001" y="375" width="98.25" height="20" as="geometry" />
        </mxCell>
        <mxCell id="lsP097urG4iB9nfSWebx-7" value="CanBeLocked" style="ellipse;whiteSpace=wrap;html=1;" vertex="1" parent="1">
          <mxGeometry x="445.75" y="400" width="103.25" height="25" as="geometry" />
        </mxCell>
        <mxCell id="lsP097urG4iB9nfSWebx-9" value="" style="endArrow=none;html=1;rounded=0;exitX=1;exitY=0;exitDx=0;exitDy=0;entryX=0;entryY=0.75;entryDx=0;entryDy=0;" edge="1" parent="1" source="lsP097urG4iB9nfSWebx-4" target="qwdnr5w1G_35Hq9LzELt-28">
          <mxGeometry width="50" height="50" relative="1" as="geometry">
            <mxPoint x="290" y="450" as="sourcePoint" />
            <mxPoint x="340" y="400" as="targetPoint" />
          </mxGeometry>
        </mxCell>
        <mxCell id="lsP097urG4iB9nfSWebx-10" value="" style="endArrow=none;html=1;rounded=0;entryX=1;entryY=1;entryDx=0;entryDy=0;exitX=0;exitY=0;exitDx=0;exitDy=0;" edge="1" parent="1" source="lsP097urG4iB9nfSWebx-5" target="qwdnr5w1G_35Hq9LzELt-28">
          <mxGeometry width="50" height="50" relative="1" as="geometry">
            <mxPoint x="660" y="400" as="sourcePoint" />
            <mxPoint x="710" y="350" as="targetPoint" />
          </mxGeometry>
        </mxCell>
        <mxCell id="lsP097urG4iB9nfSWebx-11" value="" style="endArrow=none;html=1;rounded=0;exitX=0;exitY=1;exitDx=0;exitDy=0;entryX=1;entryY=0;entryDx=0;entryDy=0;" edge="1" parent="1" source="qwdnr5w1G_35Hq9LzELt-28" target="lsP097urG4iB9nfSWebx-7">
          <mxGeometry width="50" height="50" relative="1" as="geometry">
            <mxPoint x="400" y="470" as="sourcePoint" />
            <mxPoint x="450" y="420" as="targetPoint" />
          </mxGeometry>
        </mxCell>
        <mxCell id="lsP097urG4iB9nfSWebx-16" value="AccessFailedCount" style="ellipse;whiteSpace=wrap;html=1;" vertex="1" parent="1">
          <mxGeometry x="25.999999999999986" y="852.5" width="121" height="25" as="geometry" />
        </mxCell>
        <mxCell id="lsP097urG4iB9nfSWebx-17" value="ConcurrencyStamp" style="ellipse;whiteSpace=wrap;html=1;" vertex="1" parent="1">
          <mxGeometry x="19" y="965" width="115" height="30" as="geometry" />
        </mxCell>
        <mxCell id="lsP097urG4iB9nfSWebx-18" value="Email" style="ellipse;whiteSpace=wrap;html=1;" vertex="1" parent="1">
          <mxGeometry x="307.12" y="1027.5" width="71.75" height="22.5" as="geometry" />
        </mxCell>
        <mxCell id="lsP097urG4iB9nfSWebx-19" value="EmailConfrimed" style="ellipse;whiteSpace=wrap;html=1;" vertex="1" parent="1">
          <mxGeometry x="50" y="647.5" width="121" height="25" as="geometry" />
        </mxCell>
        <mxCell id="lsP097urG4iB9nfSWebx-20" value="LockoutEnabled" style="ellipse;whiteSpace=wrap;html=1;" vertex="1" parent="1">
          <mxGeometry x="15.999999999999986" y="807.5" width="121" height="25" as="geometry" />
        </mxCell>
        <mxCell id="lsP097urG4iB9nfSWebx-21" value="LockoutEnd" style="ellipse;whiteSpace=wrap;html=1;" vertex="1" parent="1">
          <mxGeometry x="19" y="905" width="121" height="25" as="geometry" />
        </mxCell>
        <mxCell id="lsP097urG4iB9nfSWebx-24" value="Logins" style="ellipse;whiteSpace=wrap;html=1;" vertex="1" parent="1">
          <mxGeometry x="177.13" y="1100" width="71.75" height="22.5" as="geometry" />
        </mxCell>
        <mxCell id="lsP097urG4iB9nfSWebx-25" value="NormalizedEmail" style="ellipse;whiteSpace=wrap;html=1;" vertex="1" parent="1">
          <mxGeometry x="124.88" y="605" width="110.25" height="25" as="geometry" />
        </mxCell>
        <mxCell id="lsP097urG4iB9nfSWebx-26" value="NormalizedUserName" style="ellipse;whiteSpace=wrap;html=1;" vertex="1" parent="1">
          <mxGeometry x="27.630000000000003" y="1020" width="124.75" height="30" as="geometry" />
        </mxCell>
        <mxCell id="lsP097urG4iB9nfSWebx-27" value="PasswordHash" style="ellipse;whiteSpace=wrap;html=1;" vertex="1" parent="1">
          <mxGeometry x="87" y="1070" width="115" height="30" as="geometry" />
        </mxCell>
        <mxCell id="lsP097urG4iB9nfSWebx-28" value="PhoneNumber" style="ellipse;whiteSpace=wrap;html=1;" vertex="1" parent="1">
          <mxGeometry x="235.13" y="1070" width="115" height="30" as="geometry" />
        </mxCell>
        <mxCell id="lsP097urG4iB9nfSWebx-29" value="PhoneNumberConfirmed" style="ellipse;whiteSpace=wrap;html=1;" vertex="1" parent="1">
          <mxGeometry x="9" y="687.5" width="140" height="30" as="geometry" />
        </mxCell>
        <mxCell id="lsP097urG4iB9nfSWebx-30" value="SecurityStamp" style="ellipse;whiteSpace=wrap;html=1;" vertex="1" parent="1">
          <mxGeometry x="16" y="730" width="115" height="30" as="geometry" />
        </mxCell>
        <mxCell id="lsP097urG4iB9nfSWebx-31" value="TwoFactorEnabled" style="ellipse;whiteSpace=wrap;html=1;" vertex="1" parent="1">
          <mxGeometry x="14.999999999999986" y="765" width="115" height="30" as="geometry" />
        </mxCell>
        <mxCell id="BOoUM45k7-DTSGgLFSgU-1" value="IsCharging" style="ellipse;whiteSpace=wrap;html=1;flipH=1;" vertex="1" parent="1">
          <mxGeometry x="546.5" y="10" width="80" height="20" as="geometry" />
        </mxCell>
        <mxCell id="BOoUM45k7-DTSGgLFSgU-2" value="" style="endArrow=none;html=1;rounded=0;exitX=0.5;exitY=1;exitDx=0;exitDy=0;entryX=0.25;entryY=0;entryDx=0;entryDy=0;" edge="1" parent="1" source="BOoUM45k7-DTSGgLFSgU-1" target="J7ii0BVt0Hgy6ROWaT4z-2">
          <mxGeometry width="50" height="50" relative="1" as="geometry">
            <mxPoint x="660" y="80" as="sourcePoint" />
            <mxPoint x="620" y="50" as="targetPoint" />
          </mxGeometry>
        </mxCell>
        <mxCell id="BOoUM45k7-DTSGgLFSgU-10" value="EndPercentage" style="ellipse;whiteSpace=wrap;html=1;flipH=0;" vertex="1" parent="1">
          <mxGeometry x="695.36" y="205" width="92.25" height="30" as="geometry" />
        </mxCell>
        <mxCell id="BOoUM45k7-DTSGgLFSgU-11" value="StartingPercentage" style="ellipse;whiteSpace=wrap;html=1;flipH=0;" vertex="1" parent="1">
          <mxGeometry x="692.19" y="110" width="109.62" height="30" as="geometry" />
        </mxCell>
        <mxCell id="BOoUM45k7-DTSGgLFSgU-12" value="DesiredEndPercentage" style="ellipse;whiteSpace=wrap;html=1;flipH=0;" vertex="1" parent="1">
          <mxGeometry x="697.38" y="172.5" width="128.25" height="25" as="geometry" />
        </mxCell>
        <mxCell id="BOoUM45k7-DTSGgLFSgU-13" value="" style="endArrow=none;html=1;rounded=0;exitX=0;exitY=1;exitDx=0;exitDy=0;entryX=1;entryY=0;entryDx=0;entryDy=0;" edge="1" parent="1" source="BOoUM45k7-DTSGgLFSgU-11" target="p1VEuEwC6bQ1uIXTAcuc-19">
          <mxGeometry width="50" height="50" relative="1" as="geometry">
            <mxPoint x="310" y="230" as="sourcePoint" />
            <mxPoint x="360" y="180" as="targetPoint" />
          </mxGeometry>
        </mxCell>
        <mxCell id="BOoUM45k7-DTSGgLFSgU-14" value="" style="endArrow=none;html=1;rounded=0;exitX=0;exitY=0.5;exitDx=0;exitDy=0;entryX=1;entryY=0.5;entryDx=0;entryDy=0;" edge="1" parent="1" source="BOoUM45k7-DTSGgLFSgU-12" target="p1VEuEwC6bQ1uIXTAcuc-19">
          <mxGeometry width="50" height="50" relative="1" as="geometry">
            <mxPoint x="350" y="250" as="sourcePoint" />
            <mxPoint x="400" y="200" as="targetPoint" />
          </mxGeometry>
        </mxCell>
        <mxCell id="BOoUM45k7-DTSGgLFSgU-15" value="" style="endArrow=none;html=1;rounded=0;exitX=1;exitY=1;exitDx=0;exitDy=0;entryX=0;entryY=0.5;entryDx=0;entryDy=0;" edge="1" parent="1" source="p1VEuEwC6bQ1uIXTAcuc-19" target="BOoUM45k7-DTSGgLFSgU-10">
          <mxGeometry width="50" height="50" relative="1" as="geometry">
            <mxPoint x="330" y="260" as="sourcePoint" />
            <mxPoint x="380" y="210" as="targetPoint" />
          </mxGeometry>
        </mxCell>
        <mxCell id="BOoUM45k7-DTSGgLFSgU-18" value="BatteryVoltage" style="ellipse;whiteSpace=wrap;html=1;" vertex="1" parent="1">
          <mxGeometry x="630" y="412.5" width="111" height="30" as="geometry" />
        </mxCell>
        <mxCell id="BOoUM45k7-DTSGgLFSgU-19" value="BatteryCapacity" style="ellipse;whiteSpace=wrap;html=1;" vertex="1" parent="1">
          <mxGeometry x="396" y="320" width="111" height="30" as="geometry" />
        </mxCell>
        <mxCell id="BOoUM45k7-DTSGgLFSgU-20" value="" style="endArrow=none;html=1;rounded=0;exitX=1;exitY=0.5;exitDx=0;exitDy=0;entryX=0;entryY=0.25;entryDx=0;entryDy=0;" edge="1" parent="1" source="BOoUM45k7-DTSGgLFSgU-19" target="qwdnr5w1G_35Hq9LzELt-28">
          <mxGeometry width="50" height="50" relative="1" as="geometry">
            <mxPoint x="600" y="440" as="sourcePoint" />
            <mxPoint x="500" y="340" as="targetPoint" />
          </mxGeometry>
        </mxCell>
        <mxCell id="BOoUM45k7-DTSGgLFSgU-21" value="" style="endArrow=none;html=1;rounded=0;exitX=0;exitY=0;exitDx=0;exitDy=0;entryX=0.75;entryY=1;entryDx=0;entryDy=0;" edge="1" parent="1" source="BOoUM45k7-DTSGgLFSgU-18" target="qwdnr5w1G_35Hq9LzELt-28">
          <mxGeometry width="50" height="50" relative="1" as="geometry">
            <mxPoint x="620" y="400" as="sourcePoint" />
            <mxPoint x="670" y="350" as="targetPoint" />
          </mxGeometry>
        </mxCell>
        <mxCell id="g_dXPWu6AbNGrtISOvrA-1" value="MaxChargingSpeed" style="ellipse;whiteSpace=wrap;html=1;flipH=1;" vertex="1" parent="1">
          <mxGeometry x="407.88" y="45" width="109.62" height="35" as="geometry" />
        </mxCell>
        <mxCell id="g_dXPWu6AbNGrtISOvrA-3" value="" style="endArrow=none;html=1;rounded=0;entryX=1;entryY=0.5;entryDx=0;entryDy=0;exitX=0;exitY=0.25;exitDx=0;exitDy=0;" edge="1" parent="1" source="J7ii0BVt0Hgy6ROWaT4z-2" target="g_dXPWu6AbNGrtISOvrA-1">
          <mxGeometry width="50" height="50" relative="1" as="geometry">
            <mxPoint x="560" y="10" as="sourcePoint" />
            <mxPoint x="610" y="-40" as="targetPoint" />
          </mxGeometry>
        </mxCell>
        <mxCell id="lM4vLlaQatQxSaO2jNzz-2" value="" style="endArrow=none;html=1;rounded=0;exitX=0;exitY=0;exitDx=0;exitDy=0;entryX=1;entryY=0.5;entryDx=0;entryDy=0;" edge="1" parent="1" source="qwdnr5w1G_35Hq9LzELt-41" target="lsP097urG4iB9nfSWebx-29">
          <mxGeometry width="50" height="50" relative="1" as="geometry">
            <mxPoint x="330" y="830" as="sourcePoint" />
            <mxPoint x="380" y="780" as="targetPoint" />
          </mxGeometry>
        </mxCell>
        <mxCell id="lM4vLlaQatQxSaO2jNzz-3" value="" style="endArrow=none;html=1;rounded=0;exitX=1;exitY=0.5;exitDx=0;exitDy=0;entryX=0.117;entryY=0.009;entryDx=0;entryDy=0;entryPerimeter=0;" edge="1" parent="1" source="lsP097urG4iB9nfSWebx-19" target="qwdnr5w1G_35Hq9LzELt-41">
          <mxGeometry width="50" height="50" relative="1" as="geometry">
            <mxPoint x="150" y="820" as="sourcePoint" />
            <mxPoint x="260" y="700" as="targetPoint" />
          </mxGeometry>
        </mxCell>
        <mxCell id="lM4vLlaQatQxSaO2jNzz-4" value="" style="endArrow=none;html=1;rounded=0;exitX=1;exitY=1;exitDx=0;exitDy=0;entryX=0.25;entryY=0;entryDx=0;entryDy=0;" edge="1" parent="1" source="lsP097urG4iB9nfSWebx-25" target="qwdnr5w1G_35Hq9LzELt-41">
          <mxGeometry width="50" height="50" relative="1" as="geometry">
            <mxPoint x="220" y="890" as="sourcePoint" />
            <mxPoint x="270" y="840" as="targetPoint" />
          </mxGeometry>
        </mxCell>
        <mxCell id="lM4vLlaQatQxSaO2jNzz-5" value="" style="endArrow=none;html=1;rounded=0;exitX=1;exitY=0.5;exitDx=0;exitDy=0;entryX=0;entryY=0.25;entryDx=0;entryDy=0;" edge="1" parent="1" source="lsP097urG4iB9nfSWebx-30" target="qwdnr5w1G_35Hq9LzELt-41">
          <mxGeometry width="50" height="50" relative="1" as="geometry">
            <mxPoint x="250" y="860" as="sourcePoint" />
            <mxPoint x="300" y="810" as="targetPoint" />
          </mxGeometry>
        </mxCell>
        <mxCell id="lM4vLlaQatQxSaO2jNzz-6" value="" style="endArrow=none;html=1;rounded=0;exitX=1;exitY=0.5;exitDx=0;exitDy=0;entryX=0;entryY=0.5;entryDx=0;entryDy=0;" edge="1" parent="1" source="lsP097urG4iB9nfSWebx-31" target="qwdnr5w1G_35Hq9LzELt-41">
          <mxGeometry width="50" height="50" relative="1" as="geometry">
            <mxPoint x="150" y="840" as="sourcePoint" />
            <mxPoint x="200" y="790" as="targetPoint" />
          </mxGeometry>
        </mxCell>
        <mxCell id="lM4vLlaQatQxSaO2jNzz-7" value="" style="endArrow=none;html=1;rounded=0;exitX=1;exitY=0.5;exitDx=0;exitDy=0;entryX=0;entryY=0.75;entryDx=0;entryDy=0;" edge="1" parent="1" source="lsP097urG4iB9nfSWebx-20" target="qwdnr5w1G_35Hq9LzELt-41">
          <mxGeometry width="50" height="50" relative="1" as="geometry">
            <mxPoint x="220" y="860" as="sourcePoint" />
            <mxPoint x="270" y="810" as="targetPoint" />
          </mxGeometry>
        </mxCell>
        <mxCell id="lM4vLlaQatQxSaO2jNzz-8" value="" style="endArrow=none;html=1;rounded=0;entryX=0;entryY=1;entryDx=0;entryDy=0;exitX=1;exitY=0.5;exitDx=0;exitDy=0;" edge="1" parent="1" source="lsP097urG4iB9nfSWebx-16" target="qwdnr5w1G_35Hq9LzELt-41">
          <mxGeometry width="50" height="50" relative="1" as="geometry">
            <mxPoint x="240" y="850" as="sourcePoint" />
            <mxPoint x="290" y="800" as="targetPoint" />
          </mxGeometry>
        </mxCell>
        <mxCell id="lM4vLlaQatQxSaO2jNzz-9" value="" style="endArrow=none;html=1;rounded=0;entryX=0.091;entryY=0.996;entryDx=0;entryDy=0;exitX=1;exitY=0.5;exitDx=0;exitDy=0;entryPerimeter=0;" edge="1" parent="1" source="lsP097urG4iB9nfSWebx-21" target="qwdnr5w1G_35Hq9LzELt-41">
          <mxGeometry width="50" height="50" relative="1" as="geometry">
            <mxPoint x="260" y="870" as="sourcePoint" />
            <mxPoint x="310" y="820" as="targetPoint" />
          </mxGeometry>
        </mxCell>
        <mxCell id="lM4vLlaQatQxSaO2jNzz-10" value="" style="endArrow=none;html=1;rounded=0;entryX=1;entryY=0.5;entryDx=0;entryDy=0;exitX=0.166;exitY=0.996;exitDx=0;exitDy=0;exitPerimeter=0;" edge="1" parent="1" source="qwdnr5w1G_35Hq9LzELt-41" target="lsP097urG4iB9nfSWebx-17">
          <mxGeometry width="50" height="50" relative="1" as="geometry">
            <mxPoint x="280" y="790" as="sourcePoint" />
            <mxPoint x="310" y="910" as="targetPoint" />
          </mxGeometry>
        </mxCell>
        <mxCell id="lM4vLlaQatQxSaO2jNzz-11" value="" style="endArrow=none;html=1;rounded=0;entryX=0.25;entryY=1;entryDx=0;entryDy=0;exitX=1;exitY=0;exitDx=0;exitDy=0;" edge="1" parent="1" source="lsP097urG4iB9nfSWebx-26" target="qwdnr5w1G_35Hq9LzELt-41">
          <mxGeometry width="50" height="50" relative="1" as="geometry">
            <mxPoint x="290" y="900" as="sourcePoint" />
            <mxPoint x="340" y="850" as="targetPoint" />
          </mxGeometry>
        </mxCell>
        <mxCell id="lM4vLlaQatQxSaO2jNzz-12" value="" style="endArrow=none;html=1;rounded=0;entryX=0.32;entryY=0.995;entryDx=0;entryDy=0;entryPerimeter=0;exitX=0.5;exitY=0;exitDx=0;exitDy=0;" edge="1" parent="1" source="lsP097urG4iB9nfSWebx-27" target="qwdnr5w1G_35Hq9LzELt-41">
          <mxGeometry width="50" height="50" relative="1" as="geometry">
            <mxPoint x="270" y="930" as="sourcePoint" />
            <mxPoint x="320" y="880" as="targetPoint" />
          </mxGeometry>
        </mxCell>
        <mxCell id="lM4vLlaQatQxSaO2jNzz-13" value="" style="endArrow=none;html=1;rounded=0;entryX=0.377;entryY=0.995;entryDx=0;entryDy=0;exitX=0.5;exitY=0;exitDx=0;exitDy=0;entryPerimeter=0;" edge="1" parent="1" source="lsP097urG4iB9nfSWebx-24" target="qwdnr5w1G_35Hq9LzELt-41">
          <mxGeometry width="50" height="50" relative="1" as="geometry">
            <mxPoint x="278" y="1050" as="sourcePoint" />
            <mxPoint x="279" y="870" as="targetPoint" />
          </mxGeometry>
        </mxCell>
        <mxCell id="lM4vLlaQatQxSaO2jNzz-14" value="" style="endArrow=none;html=1;rounded=0;entryX=0.5;entryY=1;entryDx=0;entryDy=0;exitX=0.5;exitY=0;exitDx=0;exitDy=0;" edge="1" parent="1" source="lsP097urG4iB9nfSWebx-28" target="qwdnr5w1G_35Hq9LzELt-41">
          <mxGeometry width="50" height="50" relative="1" as="geometry">
            <mxPoint x="318" y="990" as="sourcePoint" />
            <mxPoint x="291.84000000000015" y="871.1199999999999" as="targetPoint" />
          </mxGeometry>
        </mxCell>
        <mxCell id="lM4vLlaQatQxSaO2jNzz-15" value="" style="endArrow=none;html=1;rounded=0;exitX=0;exitY=0;exitDx=0;exitDy=0;entryX=0.6;entryY=0.995;entryDx=0;entryDy=0;entryPerimeter=0;" edge="1" parent="1" source="lsP097urG4iB9nfSWebx-18" target="qwdnr5w1G_35Hq9LzELt-41">
          <mxGeometry width="50" height="50" relative="1" as="geometry">
            <mxPoint x="358" y="970" as="sourcePoint" />
            <mxPoint x="340" y="800" as="targetPoint" />
          </mxGeometry>
        </mxCell>
        <mxCell id="lM4vLlaQatQxSaO2jNzz-16" value="" style="endArrow=none;html=1;rounded=0;entryX=0.847;entryY=0.995;entryDx=0;entryDy=0;exitX=0;exitY=0;exitDx=0;exitDy=0;entryPerimeter=0;" edge="1" parent="1" source="FFwC--dFAaDETIXZmjuK-2" target="qwdnr5w1G_35Hq9LzELt-41">
          <mxGeometry width="50" height="50" relative="1" as="geometry">
            <mxPoint x="380" y="770" as="sourcePoint" />
            <mxPoint x="430" y="720" as="targetPoint" />
          </mxGeometry>
        </mxCell>
        <mxCell id="lM4vLlaQatQxSaO2jNzz-18" value="" style="endArrow=none;html=1;rounded=0;entryX=0.67;entryY=0.995;entryDx=0;entryDy=0;entryPerimeter=0;exitX=0.5;exitY=0;exitDx=0;exitDy=0;" edge="1" parent="1" source="FFwC--dFAaDETIXZmjuK-4" target="qwdnr5w1G_35Hq9LzELt-41">
          <mxGeometry width="50" height="50" relative="1" as="geometry">
            <mxPoint x="330" y="960" as="sourcePoint" />
            <mxPoint x="380" y="910" as="targetPoint" />
          </mxGeometry>
        </mxCell>
      </root>
    </mxGraphModel>
  </diagram>
</mxfile>
